<svg xmlns="http://www.w3.org/2000/svg" width="120" height="120" viewBox="0 0 120 120" version="1.1"><path d="M 42.552 1.126 C 28.447 4.431, 13.815 16.225, 7.618 29.285 C -6.437 58.903, 6.742 91.890, 37.500 104.079 C 43.248 106.357, 44.551 106.458, 68.500 106.479 L 93.500 106.500 100 109.597 C 103.575 111.300, 108.641 114.337, 111.259 116.347 C 115.904 119.913, 119 120.984, 119 119.025 C 119 117.289, 107.629 106.421, 103 103.733 C 100.525 102.295, 93.550 99.694, 87.500 97.951 C 81.450 96.209, 75.211 94.119, 73.636 93.307 C 69.672 91.264, 62.434 84.439, 59.925 80.379 C 56.840 75.387, 55.677 76.091, 56.219 82.624 L 56.685 88.247 51.226 87.684 C 39.445 86.468, 27.357 76.868, 22.974 65.247 C 21.215 60.583, 20.886 57.993, 21.232 51.500 C 21.760 41.605, 24.980 34.628, 32.172 27.799 C 48.368 12.421, 75.557 17.072, 86.449 37.084 C 88.635 41.101, 89.436 44.118, 89.793 49.683 L 90.263 57 83.932 57 C 77.068 57, 77.029 57.959, 83.812 59.890 C 91.503 62.079, 99.911 71.889, 99.978 78.750 C 100.038 84.847, 104.773 77.282, 107.643 66.505 C 109.399 59.914, 109.340 46.868, 107.525 40.045 C 102.502 21.173, 87.814 6.312, 69.458 1.531 C 63.042 -0.140, 48.866 -0.353, 42.552 1.126 M 92 77.277 C 92 80.116, 94.632 84, 96.557 84 C 98.479 84, 98.412 80.034, 96.443 77.223 C 94.411 74.321, 92 74.351, 92 77.277 M 79.384 85.442 C 78.448 87.881, 79.382 90.200, 82.125 92.246 C 84.261 93.839, 85.146 93.992, 86.875 93.067 C 89.684 91.564, 89.632 87.556, 86.777 85.557 C 83.989 83.604, 80.113 83.543, 79.384 85.442" stroke="none" fill="#ff8c04" fill-rule="evenodd"/><path d="" stroke="none" fill="#fc8c04" fill-rule="evenodd"/></svg>