<?xml version="1.0" encoding="UTF-8"?>
<!DOCTYPE svg PUBLIC "-//W3C//DTD SVG 1.1//EN" "http://www.w3.org/Graphics/SVG/1.1/DTD/svg11.dtd">
<svg xmlns="http://www.w3.org/2000/svg" version="1.1" width="576px" height="707px" style="shape-rendering:geometricPrecision; text-rendering:geometricPrecision; image-rendering:optimizeQuality; fill-rule:evenodd; clip-rule:evenodd" xmlns:xlink="http://www.w3.org/1999/xlink">
<g><path style="opacity:0.989" fill="#f1ae3b" d="M 242.5,-0.5 C 242.833,-0.5 243.167,-0.5 243.5,-0.5C 271.743,51.6598 300.743,103.326 330.5,154.5C 329.502,185.996 329.168,217.662 329.5,249.5C 329.5,283.5 329.5,317.5 329.5,351.5C 329.5,352.5 329.5,353.5 329.5,354.5C 299.961,337.237 270.961,319.237 242.5,300.5C 242.5,200.167 242.5,99.8333 242.5,-0.5 Z"/></g>
<g><path style="opacity:0.998" fill="#e46f38" d="M 243.5,-0.5 C 243.833,-0.5 244.167,-0.5 244.5,-0.5C 353.936,66.7255 463.603,133.726 573.5,200.5C 574.773,201.257 574.773,201.923 573.5,202.5C 518.336,201.501 463.003,201.168 407.5,201.5C 382.036,185.597 356.369,169.93 330.5,154.5C 300.743,103.326 271.743,51.6598 243.5,-0.5 Z"/></g>
<g><path style="opacity:0.999" fill="#257fb6" d="M 0.5,153.5 C 81.1388,202.489 161.806,251.489 242.5,300.5C 270.961,319.237 299.961,337.237 329.5,354.5C 411.175,403.668 492.508,453.334 573.5,503.5C 518.095,503.171 462.762,503.504 407.5,504.5C 381.843,488.002 355.843,472.002 329.5,456.5C 328.284,454.549 326.618,453.049 324.5,452C 297.596,435.58 270.596,419.413 243.5,403.5C 216.343,385.751 188.676,368.751 160.5,352.5C 135.833,337.5 111.167,322.5 86.5,307.5C 57.3142,256.462 28.6476,205.129 0.5,153.5 Z"/></g>
<g><path style="opacity:0.999" fill="#525795" d="M -0.5,152.5 C 0.166667,152.5 0.5,152.833 0.5,153.5C 28.6476,205.129 57.3142,256.462 86.5,307.5C 86.5,337.5 86.5,367.5 86.5,397.5C 57.8212,448.861 29.1546,500.194 0.5,551.5C 0.5,552.167 0.166667,552.5 -0.5,552.5C -0.5,419.167 -0.5,285.833 -0.5,152.5 Z"/></g>
<g><path style="opacity:0.992" fill="#c92153" d="M 407.5,201.5 C 463.003,201.168 518.336,201.501 573.5,202.5C 492.167,252.167 410.833,301.833 329.5,351.5C 329.5,317.5 329.5,283.5 329.5,249.5C 355.787,233.862 381.787,217.862 407.5,201.5 Z"/></g>
<g><path style="opacity:0.998" fill="#834b8c" d="M 160.5,352.5 C 188.676,368.751 216.343,385.751 243.5,403.5C 242.833,403.5 242.5,403.833 242.5,404.5C 162.138,454.014 81.4718,503.014 0.5,551.5C 29.1546,500.194 57.8212,448.861 86.5,397.5C 111.508,382.999 136.174,367.999 160.5,352.5 Z"/></g>
<g><path style="opacity:0.998" fill="#5bb145" d="M 243.5,403.5 C 270.596,419.413 297.596,435.58 324.5,452C 326.618,453.049 328.284,454.549 329.5,456.5C 329.5,488.167 329.5,519.833 329.5,551.5C 300.821,602.861 272.155,654.194 243.5,705.5C 243.5,705.833 243.5,706.167 243.5,706.5C 243.167,706.5 242.833,706.5 242.5,706.5C 242.5,605.833 242.5,505.167 242.5,404.5C 242.5,403.833 242.833,403.5 243.5,403.5 Z"/></g>
<g><path style="opacity:0.994" fill="#157a3f" d="M 573.5,503.5 C 464.595,571.554 354.595,638.887 243.5,705.5C 272.155,654.194 300.821,602.861 329.5,551.5C 355.5,535.833 381.5,520.167 407.5,504.5C 462.762,503.504 518.095,503.171 573.5,503.5 Z"/></g>
</svg>
