<?xml version="1.0" encoding="UTF-8" standalone="no"?>
<!DOCTYPE svg PUBLIC "-//W3C//DTD SVG 1.1//EN" "http://www.w3.org/Graphics/SVG/1.1/DTD/svg11.dtd">
<svg xmlns="http://www.w3.org/2000/svg" version="1.1" viewBox="0.00 0.00 1447.00 1448.00">
<path fill="#f8b540" d="
  M 646.33 5.01
  Q 679.05 1.93 713.33 1.17
  Q 714.13 1.16 714.13 1.95
  L 714.31 31.73
  Q 714.32 32.32 713.72 32.34
  C 692.62 33.00 671.97 33.99 649.97 36.17
  A 0.43 0.43 0.0 0 1 649.50 35.79
  L 645.94 5.50
  A 0.44 0.43 84.2 0 1 646.33 5.01
  Z"
/>
<path fill="#2564e8" d="
  M 794.97 36.18
  C 773.33 34.12 752.27 32.67 730.36 32.60
  Q 729.76 32.60 729.76 32.00
  L 729.76 1.77
  Q 729.76 1.16 730.37 1.17
  Q 765.31 1.56 798.63 5.02
  A 0.24 0.24 0.0 0 1 798.85 5.29
  L 795.55 35.71
  Q 795.49 36.23 794.97 36.18
  Z"
/>
<path fill="#292f3e" d="
  M 814.57 6.76
  C 836.95 9.42 859.26 13.46 881.32 18.31
  A 0.39 0.39 0.0 0 1 881.61 18.78
  L 874.46 48.77
  A 0.34 0.33 -76.6 0 1 874.07 49.02
  Q 841.98 41.93 811.31 38.07
  Q 810.63 37.99 810.70 37.31
  L 813.96 7.25
  A 0.55 0.55 0.0 0 1 814.57 6.76
  Z"
/>
<path fill="#2564e8" d="
  M 570.94 49.01
  L 563.93 19.76
  Q 563.78 19.13 564.41 18.98
  Q 591.88 12.84 623.23 8.11
  Q 626.66 7.59 629.84 7.37
  Q 630.44 7.33 630.51 7.92
  L 634.01 37.79
  Q 634.08 38.41 633.46 38.49
  Q 603.28 42.45 571.71 49.50
  Q 571.08 49.63 570.94 49.01
  Z"
/>
<path fill="#ee3c3d" d="
  M 897.34 22.14
  C 918.42 27.42 940.48 33.76 961.54 41.31
  Q 962.03 41.49 961.85 41.98
  L 951.48 70.47
  Q 951.30 70.99 950.78 70.81
  Q 920.34 60.29 890.04 52.82
  A 0.30 0.30 0.0 0 1 889.82 52.46
  L 896.72 22.52
  Q 896.83 22.02 897.34 22.14
  Z"
/>
<path fill="#292f3e" d="
  M 555.23 53.39
  C 534.34 58.49 514.29 64.44 494.24 71.54
  A 0.65 0.65 0.0 0 1 493.42 71.15
  L 482.86 42.97
  A 0.57 0.56 70.1 0 1 483.20 42.24
  Q 515.28 30.75 548.05 22.79
  A 0.34 0.34 0.0 0 1 548.47 23.04
  L 555.60 52.79
  A 0.50 0.50 0.0 0 1 555.23 53.39
  Z"
/>
<path fill="#292f3e" d="
  M 966.12 75.59
  L 976.51 46.96
  A 0.51 0.50 -69.2 0 1 977.16 46.66
  Q 1008.87 58.66 1039.20 73.25
  A 0.59 0.59 0.0 0 1 1039.48 74.04
  L 1026.01 101.23
  A 0.51 0.51 0.0 0 1 1025.33 101.46
  Q 996.49 87.61 966.40 76.19
  Q 965.97 76.03 966.12 75.59
  Z"
/>
<path fill="#ee3c3d" d="
  M 418.19 103.08
  L 404.56 76.02
  Q 404.31 75.51 404.82 75.27
  Q 435.24 60.34 468.07 47.86
  A 0.44 0.44 0.0 0 1 468.65 48.13
  L 479.04 76.77
  Q 479.22 77.27 478.73 77.46
  Q 448.28 89.01 418.93 103.33
  A 0.56 0.55 -25.9 0 1 418.19 103.08
  Z"
/>
<path fill="#ee3c3d" d="
  M 1095.93 141.13
  C 1077.72 129.35 1059.10 118.51 1039.90 108.80
  A 0.47 0.47 0.0 0 1 1039.70 108.18
  L 1053.37 81.07
  Q 1053.65 80.51 1054.22 80.80
  Q 1084.59 96.37 1113.32 114.81
  A 0.49 0.49 0.0 0 1 1113.47 115.50
  L 1096.74 140.96
  A 0.59 0.59 0.0 0 1 1095.93 141.13
  Z"
/>
<path fill="#292f3e" d="
  M 331.64 116.01
  C 350.37 103.69 370.00 92.49 389.81 82.21
  Q 390.33 81.95 390.58 82.46
  L 404.24 109.78
  A 0.57 0.57 0.0 0 1 403.99 110.54
  Q 375.81 125.33 349.30 142.46
  Q 348.54 142.95 348.05 142.19
  L 331.49 116.75
  A 0.54 0.54 0.0 0 1 331.64 116.01
  Z"
/>
<path fill="#292f3e" d="
  M 1181.18 165.24
  L 1161.79 188.39
  A 0.88 0.87 -50.4 0 1 1160.56 188.51
  Q 1135.87 168.46 1109.72 150.49
  Q 1109.13 150.09 1109.52 149.50
  L 1126.20 124.16
  A 0.54 0.54 0.0 0 1 1126.96 124.01
  Q 1155.41 143.35 1181.12 164.55
  Q 1181.50 164.86 1181.18 165.24
  Z"
/>
<path fill="#ee3c3d" d="
  M 318.48 125.31
  L 335.33 150.95
  Q 335.56 151.30 335.21 151.54
  Q 309.35 169.31 284.66 189.66
  Q 284.23 190.02 283.86 189.59
  L 264.26 165.93
  A 0.40 0.40 0.0 0 1 264.31 165.38
  Q 290.00 143.98 317.80 125.17
  A 0.49 0.49 0.0 0 1 318.48 125.31
  Z"
/>
<path fill="#ee3c3d" d="
  M 1242.19 221.18
  L 1219.84 242.36
  A 0.48 0.47 -42.8 0 1 1219.17 242.34
  Q 1197.17 219.39 1173.21 199.25
  Q 1172.78 198.88 1173.14 198.44
  L 1192.63 175.17
  Q 1193.06 174.66 1193.56 175.09
  Q 1219.17 197.08 1242.17 220.78
  Q 1242.38 220.99 1242.19 221.18
  Z"
/>
<path fill="#292f3e" d="
  M 202.67 222.75
  C 218.39 206.77 234.72 191.18 251.73 176.54
  Q 252.20 176.14 252.59 176.61
  L 271.87 199.66
  A 0.60 0.60 0.0 0 1 271.80 200.49
  Q 247.46 221.26 225.63 244.31
  A 0.52 0.52 0.0 0 1 224.89 244.33
  L 202.68 223.54
  A 0.55 0.55 0.0 0 1 202.67 222.75
  Z"
/>
<path fill="#292f3e" d="
  M 1230.82 253.71
  L 1252.98 232.70
  A 0.65 0.65 0.0 0 1 1253.91 232.73
  Q 1277.15 257.87 1297.40 284.12
  A 0.61 0.61 0.0 0 1 1297.28 284.98
  L 1273.12 303.07
  A 0.68 0.67 52.2 0 1 1272.19 302.95
  Q 1252.15 277.25 1230.80 254.28
  Q 1230.52 253.98 1230.82 253.71
  Z"
/>
<path fill="#ee3c3d" d="
  M 172.48 305.82
  L 148.14 287.85
  A 0.54 0.54 0.0 0 1 148.03 287.10
  Q 168.11 260.54 191.37 235.35
  Q 191.75 234.94 192.16 235.32
  L 214.37 256.13
  A 0.47 0.46 -47.2 0 1 214.39 256.78
  Q 192.53 280.26 173.08 305.73
  A 0.44 0.43 -53.1 0 1 172.48 305.82
  Z"
/>
<path fill="#2564e8" d="
  M 1318.21 370.90
  A 0.58 0.57 59.8 0 1 1317.43 370.69
  Q 1301.02 342.60 1282.09 316.60
  Q 1281.75 316.14 1282.22 315.80
  L 1306.19 298.15
  Q 1306.65 297.81 1306.99 298.27
  Q 1327.35 326.15 1344.60 355.11
  A 0.47 0.46 59.9 0 1 1344.44 355.75
  L 1318.21 370.90
  Z"
/>
<path fill="#292f3e" d="
  M 101.88 355.74
  C 112.63 337.07 125.05 318.08 138.37 299.85
  A 0.40 0.40 0.0 0 1 138.93 299.77
  L 163.29 317.99
  A 0.56 0.55 36.5 0 1 163.41 318.76
  Q 144.40 344.91 128.77 371.63
  A 0.63 0.62 30.1 0 1 127.92 371.85
  L 102.11 356.60
  A 0.64 0.63 30.3 0 1 101.88 355.74
  Z"
/>
<path fill="#292f3e" d="
  M 1325.68 384.79
  A 0.51 0.51 0.0 0 1 1325.87 384.10
  L 1351.88 369.09
  A 0.77 0.76 60.3 0 1 1352.93 369.38
  Q 1369.25 398.96 1382.98 429.42
  Q 1383.18 429.86 1382.74 430.06
  L 1355.00 442.29
  Q 1354.33 442.58 1354.04 441.91
  Q 1341.76 413.38 1325.68 384.79
  Z"
/>
<path fill="#2564e8" d="
  M 91.04 443.30
  L 63.00 431.51
  A 0.48 0.47 23.7 0 1 62.75 430.87
  Q 76.72 400.13 93.05 370.55
  A 0.68 0.68 0.0 0 1 93.98 370.29
  L 120.24 385.30
  Q 120.73 385.58 120.45 386.07
  Q 105.01 413.40 91.81 442.99
  A 0.60 0.59 -66.5 0 1 91.04 443.30
  Z"
/>
<path fill="#2564e8" d="
  M 1382.83 516.23
  C 1376.53 496.09 1369.48 476.47 1361.38 457.16
  Q 1361.10 456.50 1361.76 456.21
  L 1389.71 443.98
  Q 1390.14 443.79 1390.32 444.23
  Q 1402.93 475.45 1413.09 507.01
  Q 1413.27 507.57 1412.70 507.75
  L 1383.62 516.64
  Q 1383.02 516.83 1382.83 516.23
  Z"
/>
<path fill="#292f3e" d="
  M 85.41 458.28
  C 77.10 478.24 69.80 498.42 63.35 519.14
  Q 63.16 519.77 62.53 519.58
  L 33.76 510.93
  A 0.67 0.67 0.0 0 1 33.31 510.09
  Q 43.72 477.05 56.58 445.93
  A 0.49 0.49 0.0 0 1 57.23 445.67
  L 85.21 457.77
  A 0.40 0.40 0.0 0 1 85.41 458.28
  Z"
/>
<path fill="#292f3e" d="
  M 1387.97 531.55
  L 1417.04 523.03
  Q 1417.32 522.94 1417.41 523.23
  Q 1426.69 555.20 1433.07 589.02
  A 0.66 0.66 0.0 0 1 1432.53 589.79
  L 1402.78 594.97
  A 0.44 0.44 0.0 0 1 1402.28 594.62
  Q 1396.37 563.46 1387.56 532.29
  A 0.60 0.60 0.0 0 1 1387.97 531.55
  Z"
/>
<path fill="#2564e8" d="
  M 28.94 526.05
  L 58.21 534.55
  A 0.43 0.42 15.8 0 1 58.50 535.06
  Q 50.08 565.55 44.11 597.01
  Q 43.98 597.67 43.31 597.57
  L 13.53 592.94
  Q 12.71 592.81 12.87 592.00
  Q 18.96 558.96 28.27 526.42
  Q 28.41 525.90 28.94 526.05
  Z"
/>
<path fill="#ee3c3d" d="
  M 1435.27 604.67
  Q 1435.77 604.58 1435.86 605.08
  Q 1441.74 638.84 1444.05 673.04
  A 0.36 0.36 0.0 0 1 1443.71 673.42
  L 1413.01 675.12
  A 0.39 0.39 0.0 0 1 1412.60 674.75
  Q 1410.45 642.37 1405.21 610.56
  Q 1405.10 609.93 1405.73 609.82
  L 1435.27 604.67
  Z"
/>
<path fill="#292f3e" d="
  M 11.03 607.81
  L 40.76 612.98
  Q 41.38 613.09 41.28 613.70
  Q 36.35 644.08 34.09 676.28
  A 0.59 0.58 -86.5 0 1 33.48 676.83
  L 3.04 675.17
  Q 2.56 675.14 2.59 674.67
  Q 5.00 639.80 10.27 608.35
  Q 10.38 607.70 11.03 607.81
  Z"
/>
<path fill="#292f3e" d="
  M 1444.45 757.67
  L 1414.45 756.07
  Q 1413.79 756.03 1413.82 755.37
  C 1414.71 734.06 1414.84 713.13 1413.84 691.41
  Q 1413.81 690.78 1414.45 690.75
  L 1444.77 689.34
  Q 1445.06 689.33 1445.07 689.62
  Q 1446.57 723.17 1445.15 757.03
  Q 1445.12 757.71 1444.45 757.67
  Z"
/>
<path fill="#ee3c3d" d="
  M 32.54 691.97
  A 0.55 0.55 0.0 0 1 33.06 692.54
  Q 31.59 724.47 32.98 756.68
  Q 33.00 757.21 32.48 757.24
  L 2.36 758.87
  A 0.50 0.50 0.0 0 1 1.83 758.39
  Q 0.54 724.70 1.83 691.19
  Q 1.86 690.32 2.73 690.36
  L 32.54 691.97
  Z"
/>
<path fill="#ee3c3d" d="
  M 1444.03 773.22
  C 1442.77 795.45 1440.23 817.69 1436.58 839.50
  A 0.53 0.53 0.0 0 1 1435.97 839.93
  L 1406.05 834.75
  A 0.53 0.52 -80.5 0 1 1405.63 834.15
  Q 1410.81 801.87 1412.79 771.56
  Q 1412.83 770.94 1413.45 770.97
  L 1443.46 772.59
  Q 1444.06 772.62 1444.03 773.22
  Z"
/>
<path fill="#292f3e" d="
  M 3.71 774.51
  L 33.78 772.84
  Q 34.30 772.81 34.34 773.33
  Q 36.46 805.48 41.78 837.77
  A 0.32 0.32 0.0 0 1 41.51 838.14
  L 11.40 843.39
  Q 11.12 843.44 11.07 843.16
  Q 5.30 810.38 2.86 775.48
  Q 2.80 774.56 3.71 774.51
  Z"
/>
<path fill="#292f3e" d="
  M 1417.95 921.71
  L 1388.58 913.20
  A 0.34 0.34 0.0 0 1 1388.35 912.78
  Q 1396.82 882.24 1402.86 850.37
  A 0.34 0.33 9.9 0 1 1403.24 850.11
  L 1433.49 854.83
  A 0.70 0.70 0.0 0 1 1434.07 855.65
  Q 1428.13 888.03 1418.70 921.30
  Q 1418.53 921.88 1417.95 921.71
  Z"
/>
<path fill="#ee3c3d" d="
  M 30.30 924.83
  Q 30.08 925.06 29.80 925.00
  A 0.42 0.41 -2.2 0 1 29.48 924.71
  Q 20.05 892.00 13.85 858.88
  A 0.54 0.54 0.0 0 1 14.29 858.25
  L 43.99 853.07
  Q 44.53 852.98 44.64 853.52
  Q 50.79 885.69 59.33 915.70
  Q 59.47 916.21 58.96 916.36
  Q 44.63 920.66 30.30 924.83
  Z"
/>
<path fill="#ee3c3d" d="
  M 1389.65 1002.05
  L 1361.71 989.98
  A 0.37 0.37 0.0 0 1 1361.52 989.49
  Q 1374.15 959.07 1383.60 928.54
  Q 1383.76 928.01 1384.29 928.17
  L 1413.49 936.95
  Q 1413.77 937.04 1413.69 937.32
  Q 1403.45 970.02 1390.32 1001.77
  Q 1390.12 1002.25 1389.65 1002.05
  Z"
/>
<path fill="#292f3e" d="
  M 85.48 991.77
  L 57.43 1003.69
  Q 56.75 1003.98 56.48 1003.30
  Q 43.98 972.39 33.75 940.62
  A 0.45 0.45 0.0 0 1 34.05 940.05
  L 63.80 931.24
  A 0.34 0.34 0.0 0 1 64.22 931.46
  Q 73.89 962.36 85.82 990.95
  A 0.63 0.63 0.0 0 1 85.48 991.77
  Z"
/>
<path fill="#292f3e" d="
  M 1326.41 1061.73
  C 1336.89 1043.20 1346.31 1024.22 1355.07 1004.83
  Q 1355.35 1004.22 1355.96 1004.48
  L 1383.88 1016.21
  A 0.54 0.53 -66.7 0 1 1384.16 1016.93
  Q 1370.10 1047.84 1353.84 1077.26
  A 0.65 0.65 0.0 0 1 1352.95 1077.51
  L 1326.61 1062.45
  Q 1326.16 1062.19 1326.41 1061.73
  Z"
/>
<path fill="#ee3c3d" d="
  M 93.99 1078.56
  C 83.28 1059.33 73.36 1039.23 63.97 1018.69
  Q 63.72 1018.15 64.26 1017.91
  L 92.00 1005.69
  Q 92.56 1005.45 92.80 1006.01
  Q 105.79 1035.95 121.27 1063.29
  A 0.41 0.41 0.0 0 1 121.11 1063.84
  L 95.07 1078.86
  A 0.79 0.78 60.4 0 1 93.99 1078.56
  Z"
/>
<path fill="#2564e8" d="
  M 1315.32 1081.59
  Q 1316.89 1078.96 1318.47 1076.40
  Q 1318.77 1075.91 1319.27 1076.20
  L 1344.89 1091.34
  Q 1345.56 1091.74 1345.17 1092.42
  Q 1328.54 1121.03 1308.82 1148.06
  A 0.49 0.48 -53.1 0 1 1308.15 1148.16
  L 1283.94 1130.04
  A 0.64 0.63 -53.8 0 1 1283.81 1129.16
  Q 1300.55 1106.26 1315.32 1081.59
  Z"
/>
<path fill="#292f3e" d="
  M 102.15 1093.06
  A 0.68 0.67 -30.1 0 1 102.40 1092.13
  L 128.75 1077.06
  Q 129.18 1076.82 129.43 1077.24
  Q 146.34 1106.07 164.95 1131.56
  A 0.39 0.39 0.0 0 1 164.87 1132.10
  L 140.50 1149.84
  Q 140.02 1150.18 139.67 1149.71
  Q 119.66 1122.45 102.15 1093.06
  Z"
/>
<path fill="#292f3e" d="
  M 1274.12 1142.18
  A 0.36 0.36 0.0 0 1 1274.61 1142.11
  L 1299.33 1160.18
  A 0.47 0.47 0.0 0 1 1299.42 1160.85
  Q 1278.33 1188.55 1256.12 1212.57
  A 0.71 0.70 43.0 0 1 1255.12 1212.60
  L 1233.15 1192.02
  Q 1232.69 1191.59 1233.11 1191.12
  C 1247.44 1175.30 1260.92 1159.39 1274.12 1142.18
  Z"
/>
<path fill="#2564e8" d="
  M 150.00 1162.95
  L 174.01 1144.97
  Q 174.56 1144.57 174.97 1145.10
  Q 194.73 1170.42 216.35 1193.76
  A 0.38 0.38 0.0 0 1 216.33 1194.29
  L 194.20 1215.24
  A 0.71 0.71 0.0 0 1 193.19 1215.21
  Q 170.09 1190.19 149.86 1164.00
  Q 149.39 1163.40 150.00 1162.95
  Z"
/>
<path fill="#2564e8" d="
  M 1243.24 1224.96
  A 0.52 0.52 0.0 0 1 1243.25 1225.70
  Q 1219.75 1249.71 1194.10 1272.04
  A 0.45 0.45 0.0 0 1 1193.45 1271.99
  L 1174.02 1248.75
  A 0.47 0.46 -40.1 0 1 1174.08 1248.10
  C 1190.41 1234.26 1205.64 1219.59 1220.47 1204.30
  Q 1220.92 1203.83 1221.40 1204.28
  L 1243.24 1224.96
  Z"
/>
<path fill="#292f3e" d="
  M 253.59 1272.87
  Q 228.10 1251.09 204.78 1227.05
  Q 204.50 1226.76 204.79 1226.49
  L 227.07 1205.38
  A 0.48 0.47 46.3 0 1 227.74 1205.40
  C 242.50 1220.75 257.70 1235.23 273.72 1248.56
  Q 274.14 1248.91 273.79 1249.32
  L 254.10 1272.83
  Q 253.87 1273.10 253.59 1272.87
  Z"
/>
<path fill="#292f3e" d="
  M 1111.04 1296.61
  Q 1136.81 1279.10 1161.69 1258.68
  A 0.35 0.35 0.0 0 1 1162.18 1258.73
  L 1181.85 1282.19
  A 0.59 0.58 -40.4 0 1 1181.78 1283.01
  Q 1156.13 1304.50 1128.16 1323.21
  Q 1127.95 1323.35 1127.81 1323.13
  L 1110.89 1297.39
  A 0.57 0.56 56.3 0 1 1111.04 1296.61
  Z"
/>
<path fill="#2564e8" d="
  M 265.73 1282.54
  L 285.48 1258.95
  A 0.32 0.32 0.0 0 1 285.92 1258.91
  Q 310.81 1279.18 337.26 1297.32
  A 0.60 0.60 0.0 0 1 337.42 1298.15
  L 320.67 1323.41
  A 0.48 0.48 0.0 0 1 320.00 1323.54
  Q 292.10 1304.70 265.78 1283.15
  Q 265.45 1282.87 265.73 1282.54
  Z"
/>
<path fill="#ee3c3d" d="
  M 1097.93 1305.79
  L 1114.41 1331.25
  Q 1114.71 1331.71 1114.25 1332.01
  Q 1086.73 1349.91 1056.11 1365.74
  Q 1055.58 1366.01 1055.31 1365.48
  L 1041.71 1338.28
  Q 1041.45 1337.76 1041.97 1337.50
  Q 1070.17 1323.12 1097.16 1305.62
  A 0.56 0.56 0.0 0 1 1097.93 1305.79
  Z"
/>
<path fill="#292f3e" d="
  M 334.00 1333.11
  Q 333.37 1332.70 333.78 1332.08
  L 350.45 1306.69
  A 0.50 0.50 0.0 0 1 351.15 1306.55
  Q 378.03 1324.03 407.33 1339.01
  A 0.36 0.36 0.0 0 1 407.49 1339.50
  L 393.82 1366.64
  A 0.70 0.69 -62.9 0 1 392.88 1366.95
  Q 362.99 1351.64 334.00 1333.11
  Z"
/>
<path fill="#292f3e" d="
  M 1041.70 1372.83
  A 0.45 0.45 0.0 0 1 1041.50 1373.43
  Q 1010.88 1388.49 978.84 1400.60
  A 0.48 0.47 69.0 0 1 978.22 1400.32
  L 967.88 1371.90
  A 0.81 0.81 0.0 0 1 968.36 1370.87
  Q 998.46 1359.58 1027.06 1345.46
  A 0.79 0.79 0.0 0 1 1028.11 1345.81
  L 1041.70 1372.83
  Z"
/>
<path fill="#ee3c3d" d="
  M 470.02 1400.83
  C 449.00 1392.92 427.97 1383.93 407.91 1374.20
  A 0.51 0.51 0.0 0 1 407.67 1373.51
  L 421.03 1346.51
  A 0.73 0.73 0.0 0 1 422.01 1346.17
  Q 451.13 1360.11 480.83 1371.38
  A 0.34 0.34 0.0 0 1 481.03 1371.82
  L 470.65 1400.54
  A 0.48 0.48 0.0 0 1 470.02 1400.83
  Z"
/>
<path fill="#ee3c3d" d="
  M 953.41 1376.80
  L 964.08 1405.05
  A 0.53 0.53 0.0 0 1 963.76 1405.74
  Q 931.99 1417.08 899.09 1425.14
  Q 898.53 1425.27 898.39 1424.71
  L 891.37 1395.36
  Q 891.23 1394.77 891.82 1394.62
  Q 922.79 1387.07 952.71 1376.47
  A 0.55 0.55 0.0 0 1 953.41 1376.80
  Z"
/>
<path fill="#292f3e" d="
  M 485.21 1405.97
  L 495.65 1377.24
  Q 495.84 1376.72 496.36 1376.91
  Q 525.92 1387.30 556.59 1394.84
  A 0.62 0.62 0.0 0 1 557.04 1395.58
  L 550.21 1425.21
  Q 550.08 1425.75 549.54 1425.61
  Q 516.05 1417.12 485.43 1406.42
  A 0.35 0.35 0.0 0 1 485.21 1405.97
  Z"
/>
<path fill="#292f3e" d="
  M 876.24 1399.05
  L 883.24 1428.26
  Q 883.39 1428.90 882.75 1429.04
  Q 850.16 1436.29 817.29 1440.77
  A 0.58 0.57 -7.4 0 1 816.64 1440.27
  L 813.10 1410.01
  A 0.44 0.44 0.0 0 1 813.48 1409.52
  Q 844.65 1405.39 875.35 1398.50
  Q 876.07 1398.34 876.24 1399.05
  Z"
/>
<path fill="#ee3c3d" d="
  M 565.36 1429.31
  L 572.45 1399.49
  A 0.35 0.35 0.0 0 1 572.87 1399.23
  Q 604.10 1406.31 635.69 1409.89
  A 0.58 0.58 0.0 0 1 636.20 1410.53
  L 632.93 1441.25
  Q 632.88 1441.76 632.37 1441.70
  Q 599.31 1437.48 565.78 1429.99
  Q 565.22 1429.87 565.36 1429.31
  Z"
/>
<path fill="#ee3c3d" d="
  M 746.12 1414.89
  Q 771.06 1414.24 797.22 1411.61
  Q 797.66 1411.56 797.72 1412.00
  L 801.25 1442.05
  Q 801.33 1442.70 800.69 1442.76
  Q 767.59 1446.05 733.58 1446.59
  A 0.59 0.59 0.0 0 1 732.98 1445.99
  L 732.99 1415.77
  Q 732.99 1415.45 733.31 1415.43
  Q 739.70 1415.06 746.12 1414.89
  Z"
/>
<path fill="#292f3e" d="
  M 648.30 1442.53
  L 651.57 1412.31
  Q 651.64 1411.69 652.25 1411.76
  Q 684.83 1415.16 716.47 1415.41
  Q 717.06 1415.42 717.07 1416.01
  L 717.36 1446.50
  A 0.33 0.33 0.0 0 1 717.03 1446.83
  Q 683.16 1446.58 648.72 1443.04
  A 0.46 0.46 0.0 0 1 648.30 1442.53
  Z"
/>
</svg>
