<svg width="20" height="18" viewBox="0 0 20 18" fill="none" xmlns="http://www.w3.org/2000/svg">
<path fill-rule="evenodd" clip-rule="evenodd" d="M5.69499 3.72007H18.895C19.1959 3.71605 19.4842 3.84059 19.6875 4.06241C19.8909 4.28424 19.9899 4.58227 19.9598 4.88167L19.0798 13.3297C19.0303 13.8632 18.586 14.2734 18.0502 14.2801H6.90939C6.39716 14.278 5.96158 13.9057 5.87979 13.4001L4.11979 4.79367L3.44219 1.96007H1.47979C0.993782 1.96007 0.599792 1.56608 0.599792 1.08007C0.599792 0.594063 0.993782 0.200073 1.47979 0.200073H3.98779C4.46688 0.208893 4.88107 0.536641 4.99979 1.00087L5.69499 3.72007ZM7.49036 12.5203H17.4168L18.1208 5.48027H6.08236L7.49036 12.5203Z" fill="white"/>
<path d="M8.96838 17.8003C9.69739 17.8003 10.2884 17.2093 10.2884 16.4803C10.2884 15.7513 9.69739 15.1603 8.96838 15.1603C8.23936 15.1603 7.64838 15.7513 7.64838 16.4803C7.64838 17.2093 8.23936 17.8003 8.96838 17.8003Z" fill="white"/>
<path d="M15.1289 17.8003C15.8579 17.8003 16.4489 17.2093 16.4489 16.4803C16.4489 15.7513 15.8579 15.1603 15.1289 15.1603C14.3999 15.1603 13.8089 15.7513 13.8089 16.4803C13.8089 17.2093 14.3999 17.8003 15.1289 17.8003Z" fill="white"/>
</svg>
