<svg viewBox="0 0 40 40" fill="none" xmlns="http://www.w3.org/2000/svg"><path d="M32.5 37.456v1.919h-1.25a.627.627 0 01-.625-.625v-.063a7.542 7.542 0 001.875-1.23zM35 36.875h2.5v2.5H35v-2.5zM35 34.375h2.5v2.5H35v-2.5zM35 31.875h2.5v2.5H35v-2.5zM37.5 29.375v2.5H35v-2.5h2.5zM36.25 26.875v2.5h-1.43c-.1-.806-.257-1.644-.457-2.5h1.888zM34.363 26.875a31.266 31.266 0 00-.687-2.5h2.575v2.5h-1.888zM37.5 21.875v2.5H35v-2.5h2.5z" fill="#FBDE08"/><path d="M35.002 29.375v2.5c0-.781-.063-1.625-.182-2.5h.182zM35.002 31.875v2.5h-.432a7.372 7.372 0 00.432-2.5zM33.082 36.875a7.506 7.506 0 001.487-2.5h.432v2.5h-1.919zM35 36.875v2.5h-2.5v-1.919c.206-.187.4-.375.581-.581H35zM37.5 39.375v-2.5h1.25c.344 0 .625.281.625.625v1.25a.627.627 0 01-.625.625H37.5zM37.5 36.875v-2.5h1.25c.344 0 .625.281.625.625v1.25a.627.627 0 01-.625.625H37.5zM37.5 34.375v-2.5h1.25c.344 0 .625.281.625.625v1.25a.627.627 0 01-.625.625H37.5zM37.5 31.875v-2.5h1.25c.344 0 .625.281.625.625v1.25a.627.627 0 01-.625.625H37.5zM38.125 27.5v1.25a.627.627 0 01-.625.625h-1.25v-2.5h1.25c.344 0 .625.281.625.625zM38.125 25v1.25a.627.627 0 01-.625.625h-1.25v-2.5h1.25c.344 0 .625.281.625.625zM34.998 21.875v2.5h-1.325a33.345 33.345 0 00-.9-2.5h2.225zM37.5 24.375v-2.5h1.25c.344 0 .625.281.625.625v1.25a.627.627 0 01-.625.625H37.5zM37.5 23.038v1.337H35v-.938h1.25c.462 0 .9-.143 1.25-.4z" fill="#FFC008"/><path d="M39.375 22.5v1.25a.627.627 0 01-.625.625H37.5v-1.337c.4-.276.706-.688.844-1.163h.406c.344 0 .625.281.625.625zM35 23.438v.937h-1.324c-.1-.313-.2-.625-.313-.938h1.638z" fill="#FFA10B"/><path d="M36.252 25.538v1.337h-1.888c-.069-.313-.15-.625-.231-.938h.869c.462 0 .9-.143 1.25-.4z" fill="#FFC008"/><path d="M38.125 25v1.25a.627.627 0 01-.625.625h-1.25v-1.337c.4-.276.706-.688.844-1.163h.406c.344 0 .625.281.625.625z" fill="#FFA10B"/><path d="M36.25 28.038v1.337h-1.43a18.058 18.058 0 00-.144-.938H35c.462 0 .9-.143 1.25-.4z" fill="#FFC008"/><path d="M38.125 27.5v1.25a.627.627 0 01-.625.625h-1.25v-1.337c.4-.276.706-.688.844-1.163h.406c.344 0 .625.281.625.625z" fill="#FFA10B"/><path d="M37.5 30.538v1.337H35v-.938h1.25c.462 0 .9-.143 1.25-.4z" fill="#FFC008"/><path d="M39.375 30v1.25a.627.627 0 01-.625.625H37.5v-1.337c.4-.276.706-.688.844-1.163h.406c.344 0 .625.281.625.625z" fill="#FFA10B"/><path d="M37.5 33.038v1.337H35v-.938h1.25c.462 0 .9-.143 1.25-.4z" fill="#FFC008"/><path d="M39.375 32.5v1.25a.627.627 0 01-.625.625H37.5v-1.337c.4-.275.706-.688.844-1.163h.406c.344 0 .625.281.625.625zM35.002 33.438v.937h-.432c.107-.3.2-.612.27-.938h.162z" fill="#FFA10B"/><path d="M37.5 35.538v1.337H35v-.938h1.25c.462 0 .9-.143 1.25-.4z" fill="#FFC008"/><path d="M39.375 35v1.25a.627.627 0 01-.625.625H37.5v-1.337c.4-.275.706-.688.844-1.163h.406c.344 0 .625.281.625.625zM35 35.938v.937h-1.918c.262-.294.5-.606.712-.938h1.207z" fill="#FFA10B"/><path d="M37.5 38.038v1.337H35v-.938h1.25c.462 0 .9-.143 1.25-.4zM31.113 38.438H32.5v.937h-1.25a.627.627 0 01-.625-.625v-.063l.488-.25z" fill="#FFC008"/><path d="M39.375 37.5v1.25a.627.627 0 01-.625.625H37.5v-1.337c.4-.275.706-.688.844-1.163h.406c.344 0 .625.281.625.625zM32.5 38.438H35v.937h-2.5v-.938z" fill="#FFA10B"/><path d="M9.375 36.875h-7.5a.627.627 0 00-.625.625v1.25c0 .344.281.625.625.625h7.5a.619.619 0 00.594-.444.58.58 0 00.031-.181V37.5a.627.627 0 00-.625-.625zM10 34.375H2.5a.627.627 0 00-.625.625v1.25c0 .344.281.625.625.625H10a.627.627 0 00.625-.625V35a.627.627 0 00-.625-.625zM9.375 31.875h-7.5a.627.627 0 00-.625.625v1.25c0 .344.281.625.625.625h7.5A.627.627 0 0010 33.75V32.5a.627.627 0 00-.625-.625zM10 29.375H2.5a.627.627 0 00-.625.625v1.25c0 .344.281.625.625.625H10a.627.627 0 00.625-.625V30a.627.627 0 00-.625-.625zM8.75 26.875h-7.5a.627.627 0 00-.625.625v1.25c0 .344.281.625.625.625h7.5a.627.627 0 00.625-.625V27.5a.627.627 0 00-.625-.625zM8.75 24.375h-7.5A.627.627 0 00.625 25v1.25c0 .344.281.625.625.625h7.5a.627.627 0 00.625-.625V25a.627.627 0 00-.625-.625zM10 21.875H2.5a.627.627 0 00-.625.625v1.25c0 .344.281.625.625.625H10a.627.627 0 00.625-.625V22.5a.627.627 0 00-.625-.625z" fill="#FFC008"/><path d="M6.25 8.125c0 1.875 2.5 2.5 2.5 2.5s-2.5.625-2.5 2.5c0-1.875-2.5-2.5-2.5-2.5s2.5-.625 2.5-2.5z" fill="#FF9700"/><path d="M33.75 5.625c0 1.875 2.5 2.5 2.5 2.5s-2.5.625-2.5 2.5c0-1.875-2.5-2.5-2.5-2.5s2.5-.625 2.5-2.5zM10.625 22.5v1.25a.627.627 0 01-.625.625H8.75v-2.5H10c.344 0 .625.281.625.625zM3.75 21.875h2.5v2.5h-2.5v-2.5zM9.375 25v1.25a.627.627 0 01-.625.625H7.5v-2.5h1.25c.344 0 .625.281.625.625zM5 24.375v2.5H2.5v-2.5H5zM9.375 27.5v1.25a.627.627 0 01-.625.625H7.5v-2.5h1.25c.344 0 .625.281.625.625zM5 26.875v2.5H2.5v-2.5H5zM10.625 31.25a.627.627 0 01-.625.625H8.75v-2.5H10c.344 0 .625.281.625.625v1.25zM5 29.375h1.25v2.5h-2.5v-2.5H5zM10 32.5v1.25a.627.627 0 01-.625.625h-1.25v-2.5h1.25c.344 0 .625.281.625.625zM3.125 31.875h2.5v2.5h-2.5v-2.5zM10.625 35v1.25a.627.627 0 01-.625.625H8.75v-2.5H10c.344 0 .625.281.625.625zM6.25 34.375v2.5h-2.5v-2.5h2.5zM10 37.5v1.25a.58.58 0 01-.031.181.619.619 0 01-.594.444h-1.25v-2.5h1.25c.344 0 .625.281.625.625zM3.125 36.875h2.5v2.5h-2.5v-2.5z" fill="#FBDE08"/><path d="M10 37.5v1.25a.58.58 0 01-.031.181.619.619 0 01-.594.444h-7.5a.627.627 0 01-.625-.625v-.313h5.625c.463 0 .9-.143 1.25-.4.4-.274.706-.687.844-1.162h.406c.344 0 .625.281.625.625z" fill="#FFA10B"/><path d="M10 37.5v1.25a.58.58 0 01-.031.181.619.619 0 01-.594.444h-1.25v-1.337c.4-.275.706-.688.844-1.163h.406c.344 0 .625.281.625.625zM3.125 38.438h2.5v.937h-2.5v-.938zM10 19.375H2.5a.627.627 0 00-.625.625v1.25c0 .344.281.625.625.625H10a.627.627 0 00.625-.625V20a.627.627 0 00-.625-.625z" fill="#FFC008"/><path d="M10.625 20v1.25a.627.627 0 01-.625.625H8.75v-2.5H10c.344 0 .625.281.625.625zM3.75 19.375h2.5v2.5h-2.5v-2.5z" fill="#FBDE08"/><path d="M8.75 20.538v1.337h-2.5v-.938H7.5c.463 0 .9-.143 1.25-.4zM3.75 20.938v.937H2.5a.627.627 0 01-.625-.625v-.313H3.75z" fill="#FFA10B"/><path d="M10.625 20v1.25a.627.627 0 01-.625.625H8.75v-1.337c.4-.276.706-.688.844-1.163H10c.344 0 .625.281.625.625zM3.75 20.938h2.5v.937h-2.5v-.938z" fill="#FFC008"/><path d="M8.75 23.038v1.337h-2.5v-.938H7.5c.463 0 .9-.143 1.25-.4zM3.75 23.438v.937H2.5a.627.627 0 01-.625-.625v-.313H3.75z" fill="#FFA10B"/><path d="M10.625 22.5v1.25a.627.627 0 01-.625.625H8.75v-1.337c.4-.276.706-.688.844-1.163H10c.344 0 .625.281.625.625zM3.75 23.438h2.5v.937h-2.5v-.938z" fill="#FFC008"/><path d="M7.5 25.538v1.337H5v-.938h1.25c.463 0 .9-.143 1.25-.4zM2.5 25.938v.937H1.25a.627.627 0 01-.625-.625v-.313H2.5z" fill="#FFA10B"/><path d="M9.375 25v1.25a.627.627 0 01-.625.625H7.5v-1.337c.4-.276.706-.688.844-1.163h.406c.344 0 .625.281.625.625zM2.5 25.938H5v.937H2.5v-.938z" fill="#FFC008"/><path d="M7.5 28.038v1.337H5v-.938h1.25c.463 0 .9-.143 1.25-.4zM2.5 28.438v.937H1.25a.627.627 0 01-.625-.625v-.313H2.5z" fill="#FFA10B"/><path d="M9.375 27.5v1.25a.627.627 0 01-.625.625H7.5v-1.337c.4-.276.706-.688.844-1.163h.406c.344 0 .625.281.625.625zM2.5 28.438H5v.937H2.5v-.938z" fill="#FFC008"/><path d="M8.75 30.538v1.337h-2.5v-.938H7.5c.463 0 .9-.143 1.25-.4zM3.75 30.938v.937H2.5a.627.627 0 01-.625-.625v-.313H3.75z" fill="#FFA10B"/><path d="M10.625 30v1.25a.627.627 0 01-.625.625H8.75v-1.337c.4-.276.706-.688.844-1.163H10c.344 0 .625.281.625.625zM3.75 30.938h2.5v.937h-2.5v-.938z" fill="#FFC008"/><path d="M8.125 33.038v1.337h-2.5v-.938h1.25c.463 0 .9-.143 1.25-.4zM3.125 33.438v.937h-1.25a.627.627 0 01-.625-.625v-.313h1.875z" fill="#FFA10B"/><path d="M10 32.5v1.25a.627.627 0 01-.625.625h-1.25v-1.337c.4-.275.706-.688.844-1.163h.406c.344 0 .625.281.625.625zM3.125 33.438h2.5v.937h-2.5v-.938z" fill="#FFC008"/><path d="M8.75 35.538v1.337h-2.5v-.938H7.5c.463 0 .9-.143 1.25-.4zM3.75 35.938v.937H2.5a.627.627 0 01-.625-.625v-.313H3.75z" fill="#FFA10B"/><path d="M10.625 35v1.25a.627.627 0 01-.625.625H8.75v-1.337c.4-.275.706-.688.844-1.163H10c.344 0 .625.281.625.625zM3.75 35.938h2.5v.937h-2.5v-.938z" fill="#FFC008"/><path d="M20 31.25a5 5 0 100-10 5 5 0 000 10z" fill="#EAEAEA"/><path d="M25 26.25a4.999 4.999 0 01-9.676 1.769 4.999 4.999 0 008.1-5.412A4.99 4.99 0 0125 26.25z" fill="#A29292"/><path d="M23.438 10.625c.35 0 .65-.188.806-.475 3.588 2.325 6.62 6.931 8.532 11.725.337.831.637 1.669.9 2.5.268.844.5 1.681.687 2.5.2.856.356 1.694.456 2.5.12.875.182 1.719.182 2.5 0 .875-.15 1.719-.431 2.5a7.506 7.506 0 01-1.488 2.5 7.587 7.587 0 01-2.456 1.813 7.375 7.375 0 01-3.125.687h-15a7.409 7.409 0 01-2.531-.444.58.58 0 00.03-.181V37.5a.627.627 0 00-.624-.625H10a.627.627 0 00.625-.625V35a.627.627 0 00-.625-.625h-.625A.627.627 0 0010 33.75V32.5a.627.627 0 00-.625-.625H10a.627.627 0 00.625-.625V30a.627.627 0 00-.625-.625H8.75a.627.627 0 00.625-.625V27.5a.627.627 0 00-.625-.625.627.627 0 00.625-.625V25a.627.627 0 00-.625-.625H10a.627.627 0 00.625-.625V22.5a.627.627 0 00-.625-.625.627.627 0 00.625-.625V20a.627.627 0 00-.625-.625H8.332c1.887-3.838 4.469-7.313 7.425-9.225a.908.908 0 00.806.475h6.875zm1.563 15.625c0-2.762-2.238-5-5-5-2.763 0-5 2.238-5 5s2.237 5 5 5c2.762 0 5-2.238 5-5z" fill="#6E737A"/><path d="M35 31.875c0 .875-.15 1.719-.431 2.5a7.506 7.506 0 01-1.488 2.5 7.587 7.587 0 01-2.456 1.813 7.375 7.375 0 01-3.125.687h-15a7.408 7.408 0 01-2.531-.444.58.58 0 00.031-.181V37.5a.627.627 0 00-.625-.625H23.75a7.375 7.375 0 003.125-.688 7.587 7.587 0 002.456-1.812 7.506 7.506 0 001.488-2.5 7.375 7.375 0 00.431-2.5c0-.781-.063-1.625-.181-2.5-.1-.806-.256-1.644-.456-2.5a31.224 31.224 0 00-.688-2.5 33.345 33.345 0 00-.9-2.5c-1.294-3.238-3.094-6.394-5.237-8.819a.877.877 0 00.456-.406c3.587 2.325 6.619 6.931 8.531 11.725.337.831.638 1.669.9 2.5.269.844.5 1.681.688 2.5.2.856.356 1.694.456 2.5.118.875.181 1.719.181 2.5z" fill="#3D3F42"/><path d="M12.469 38.931a7.406 7.406 0 002.531.444h-2.5a7.406 7.406 0 01-2.531-.444.58.58 0 00.031-.181V37.5a.627.627 0 00-.625-.625H10a.627.627 0 00.625-.625V35a.627.627 0 00-.625-.625h-.625A.627.627 0 0010 33.75V32.5a.627.627 0 00-.625-.625H10a.627.627 0 00.625-.625V30a.627.627 0 00-.625-.625H8.75a.627.627 0 00.625-.625V27.5a.627.627 0 00-.625-.625.627.627 0 00.625-.625V25a.627.627 0 00-.625-.625H10a.627.627 0 00.625-.625V22.5a.627.627 0 00-.625-.625.627.627 0 00.625-.625V20a.627.627 0 00-.625-.625h2.5c.344 0 .625.281.625.625v1.25a.627.627 0 01-.625.625c.344 0 .625.281.625.625v1.25a.627.627 0 01-.625.625h-1.25c.344 0 .625.281.625.625v1.25a.627.627 0 01-.625.625c.344 0 .625.281.625.625v1.25a.627.627 0 01-.625.625h1.25c.344 0 .625.281.625.625v1.25a.627.627 0 01-.625.625h-.625c.344 0 .625.281.625.625v1.25a.627.627 0 01-.625.625h.625c.344 0 .625.281.625.625v1.25a.627.627 0 01-.625.625h-.625c.344 0 .625.281.625.625v1.25a.582.582 0 01-.031.181z" fill="#3D3F42"/><path d="M20.156 1.781c3.075-2.269 6.094-.531 6.094-.531-3.2 2.7-5.494 1.069-6.094.531z" fill="#364449"/><path d="M26.25 1.25l-2.313 5.775a.858.858 0 00-.5-.15h-6.875a.858.858 0 00-.5.15L13.75 1.25S17.5-.331 20 1.631c0 0 .056.056.156.15.6.538 2.894 2.169 6.094-.531z" fill="#6E737A"/><path d="M23.126 13.75a.626.626 0 01-.56-.346l-1.25-2.5a.625.625 0 011.118-.559l1.25 2.5a.625.625 0 01-.558.905zM16.874 13.75a.625.625 0 01-.558-.904l1.25-2.5a.625.625 0 011.118.56l-1.25 2.499a.626.626 0 01-.56.345z" fill="#364449"/><path d="M24.375 9.687a.834.834 0 01-.131.463.908.908 0 01-.806.475H16.562a.908.908 0 01-.806-.475.834.834 0 01-.131-.463c0-.518.419-.937.938-.937h6.875c.518 0 .937.419.937.937z" fill="#FFC008"/><path d="M23.438 6.875c.187 0 .356.05.5.15a.927.927 0 01.437.787.936.936 0 01-.938.938h-6.875a.936.936 0 01-.937-.938c0-.33.175-.625.438-.787.143-.1.312-.15.5-.15h6.875z" fill="#FBDE08"/><path d="M21.876 27.5A1.877 1.877 0 0020 25.625a.625.625 0 11.538-.941.624.624 0 101.086-.618 1.849 1.849 0 00-1-.82v-.121a.624.624 0 10-1.25 0v.115a1.872 1.872 0 00-1.25 1.76c0 1.034.841 1.875 1.875 1.875a.625.625 0 11-.538.941.625.625 0 10-1.086.618c.222.392.584.672 1 .82v.121a.624.624 0 101.25 0v-.115a1.872 1.872 0 001.25-1.76z" fill="#6E737A"/></svg>