<svg viewBox="0 0 19 19" fill="none" xmlns="http://www.w3.org/2000/svg"><g clip-path="url(#clip0)"><path d="M14.75 8.346a.7.7 0 01-.069.03l-.038.013a.7.7 0 01-.54-.024.7.7 0 01-.364-.398.939.939 0 01.28-1.039l1.56-1.301a.959.959 0 00.286-1.06l-.092-.256a.957.957 0 00-1.798.653l.077.21a.284.284 0 00.533-.193.298.298 0 01.559-.203.88.88 0 01-1.652.6l-.076-.21c-.142-.39-.123-.811.052-1.187a1.553 1.553 0 012.864.126l.093.256a1.555 1.555 0 01-.465 1.721L14.4 7.385a.342.342 0 00-.101.38.11.11 0 00.14.065l.04-.014a.11.11 0 00.066-.141.297.297 0 11.558-.203.7.7 0 01-.354.874z" fill="url(#paint0_radial)"/><path d="M3.354 9.948a.696.696 0 00.073.009l.041.002a.7.7 0 00.512-.171.7.7 0 00.24-.483.939.939 0 00-.555-.922l-1.858-.82a.959.959 0 01-.568-.942l.019-.27a.957.957 0 011.908.132l-.015.224a.284.284 0 01-.566-.04.298.298 0 00-.594-.04.88.88 0 001.753.12l.016-.223a1.541 1.541 0 00-.378-1.126 1.553 1.553 0 00-2.718.91l-.018.272c-.045.65.324 1.263.92 1.527l1.858.82a.343.343 0 01.203.337.11.11 0 01-.118.102l-.04-.003a.11.11 0 01-.103-.117.298.298 0 10-.593-.042.7.7 0 00.58.744z" fill="url(#paint1_radial)"/><path d="M13.415 5.167l.077.21c.08.222.241.398.454.497a.88.88 0 001.197-1.096.297.297 0 10-.56.203.281.281 0 01-.17.363.284.284 0 01-.362-.17l-.077-.21a.95.95 0 01-.014-.612l-.493-.371a1.542 1.542 0 00-.052 1.186z" fill="url(#paint2_linear)"/><path d="M15.08 8.01a.701.701 0 00.023-.539.298.298 0 00-.559.204.11.11 0 01-.066.14l-.038.015a.11.11 0 01-.141-.066.343.343 0 01.052-.327l-.475-.358a.94.94 0 00-.137.888.701.701 0 00.904.422l.038-.014a.7.7 0 00.398-.364z" fill="url(#paint3_linear)"/><path d="M13.569 14.357c-.074-.522-1.796-.712-3.846-.424s-3.654.945-3.58 1.467c.073.523 1.795.713 3.846.425 2.05-.289 3.653-.946 3.58-1.468z" fill="url(#paint4_radial)"/><path d="M12.986 14.987c-.635.341-1.73.66-2.996.837-.232.033-.46.06-.68.08l-1.466-1.105a.186.186 0 01-.061-.054l-.005-.009-.004-.007a.08.08 0 01-.006-.04h-.003l.003-.002c.005-.056.064-.118.168-.181l.066-.04.121-.077.01-.006a6.513 6.513 0 00.268-.189l.023-.017c.402-.096.84-.18 1.3-.244.46-.065.904-.105 1.316-.123.183.071.37.13.56.18a.63.63 0 01.13.05v.001l1.256.946z" fill="url(#paint5_linear)"/><path d="M13.377 3.753l-.491-1.237-9.35 1.314-.131 1.325a7.362 7.362 0 00.327 3.014 5.187 5.187 0 004.136 3.505 1.414 1.414 0 011.184 1.199c.064.455-.12.91-.484 1.192l-.12.094c-.164.126-.336.24-.513.347-.104.063-.163.124-.168.181l-.003.002h.003v.018c.032.226.964.282 2.082.125 1.118-.157 2-.468 1.968-.694a.083.083 0 00-.005-.018h.002l-.003-.001c-.02-.053-.095-.096-.212-.128a5.38 5.38 0 01-.588-.192l-.142-.057a1.283 1.283 0 01-.793-1.013 1.414 1.414 0 01.808-1.48 5.18 5.18 0 003.008-4.483 7.355 7.355 0 00-.515-3.013z" fill="url(#paint6_linear)"/><path d="M13.377 3.753l-.491-1.237-9.35 1.314-.131 1.325a7.362 7.362 0 00.327 3.014 5.187 5.187 0 004.136 3.505c.29.045.549.176.752.366l1.703 1.284a1.281 1.281 0 01-.247-.595 1.414 1.414 0 01.808-1.48 5.18 5.18 0 003.008-4.483 7.355 7.355 0 00-.515-3.013z" fill="url(#paint7_linear)"/><path d="M13.829 5.45c.061.438.083.878.065 1.316-.1 2.505-2.002 4.57-4.485 4.92-2.492.35-4.894-1.124-5.675-3.517a7.361 7.361 0 01-.327-3.014l.13-1.325 9.35-1.314.492 1.237c.22.553.369 1.123.45 1.696z" fill="url(#paint8_radial)"/><path d="M12.886 2.516c-.073-.522-2.225-.651-4.807-.289-2.582.363-4.615 1.08-4.542 1.603.074.523 2.226.652 4.808.289 2.582-.363 4.615-1.08 4.541-1.603z" fill="url(#paint9_linear)"/><path d="M12.426 2.5c-.055-.39-1.991-.44-4.325-.112s-4.182.91-4.127 1.3c.055.39 1.991.44 4.325.112s4.182-.91 4.127-1.3z" fill="url(#paint10_linear)"/><path d="M13.566 8.519a5.278 5.278 0 01-3.403 2.94l-1.204-.894-.019-.007c-.088-.037-.138-.097-.15-.18L8.32 7.03l-.74-.549a.365.365 0 01-.114-.217.371.371 0 01.12-.34l.71-.889a.294.294 0 01.201-.115.467.467 0 01.266.038l4.803 3.56z" fill="url(#paint11_linear)"/><path d="M7.43 6.294a.376.376 0 01.12-.343l.7-.894a.29.29 0 01.2-.116.458.458 0 01.263.039c.083.039.13.1.141.183l.726 5.164c.012.083-.02.155-.097.216a.56.56 0 01-.278.115.553.553 0 01-.303-.033c-.087-.038-.137-.098-.149-.182l-.61-4.337-.224.382a.24.24 0 01-.16.102.247.247 0 01-.215-.078.37.37 0 01-.114-.218z" fill="#FFB211"/></g><defs><linearGradient id="paint2_linear" x1="14.54" y1="4.95" x2="12.79" y2="5.002" gradientUnits="userSpaceOnUse"><stop stop-color="#FFB211" stop-opacity="0"/><stop offset=".228" stop-color="#FF9F19" stop-opacity=".227"/><stop offset=".686" stop-color="#FF6F2E" stop-opacity=".686"/><stop offset="1" stop-color="#FF4B3E"/></linearGradient><linearGradient id="paint3_linear" x1="14.635" y1="7.741" x2="13.262" y2="7.782" gradientUnits="userSpaceOnUse"><stop stop-color="#FFB211" stop-opacity="0"/><stop offset=".228" stop-color="#FF9F19" stop-opacity=".227"/><stop offset=".686" stop-color="#FF6F2E" stop-opacity=".686"/><stop offset="1" stop-color="#FF4B3E"/></linearGradient><linearGradient id="paint5_linear" x1="10.515" y1="15.299" x2="9.81" y2="12.988" gradientUnits="userSpaceOnUse"><stop stop-color="#FFB211" stop-opacity="0"/><stop offset=".228" stop-color="#FF9F19" stop-opacity=".227"/><stop offset=".686" stop-color="#FF6F2E" stop-opacity=".686"/><stop offset="1" stop-color="#FF4B3E"/></linearGradient><linearGradient id="paint6_linear" x1="8.748" y1="9.043" x2="10.086" y2="8.854" gradientUnits="userSpaceOnUse"><stop stop-color="#FFE548"/><stop offset="1" stop-color="#FFB211"/></linearGradient><linearGradient id="paint7_linear" x1="11.227" y1="12.435" x2="9.668" y2="8.657" gradientUnits="userSpaceOnUse"><stop stop-color="#FFB211" stop-opacity="0"/><stop offset=".181" stop-color="#FF931F" stop-opacity=".18"/><stop offset=".401" stop-color="#FF732C" stop-opacity=".4"/><stop offset=".615" stop-color="#FF5D36" stop-opacity=".616"/><stop offset=".818" stop-color="#FF503C" stop-opacity=".82"/><stop offset="1" stop-color="#FF4B3E"/></linearGradient><linearGradient id="paint9_linear" x1="5.5" y1="1.946" x2="11.16" y2="4.507" gradientUnits="userSpaceOnUse"><stop stop-color="#FFE548"/><stop offset="1" stop-color="#FFB211"/></linearGradient><linearGradient id="paint10_linear" x1="8.452" y1="4.886" x2="7.932" y2="1.189" gradientUnits="userSpaceOnUse"><stop stop-color="#FFB211" stop-opacity="0"/><stop offset=".228" stop-color="#FF9F19" stop-opacity=".227"/><stop offset=".686" stop-color="#FF6F2E" stop-opacity=".686"/><stop offset="1" stop-color="#FF4B3E"/></linearGradient><linearGradient id="paint11_linear" x1="10.691" y1="9.121" x2="3.837" y2="3.956" gradientUnits="userSpaceOnUse"><stop stop-color="#FFB211" stop-opacity="0"/><stop offset=".228" stop-color="#FF9F19" stop-opacity=".227"/><stop offset=".686" stop-color="#FF6F2E" stop-opacity=".686"/><stop offset="1" stop-color="#FF4B3E"/></linearGradient><radialGradient id="paint0_radial" cx="0" cy="0" r="1" gradientUnits="userSpaceOnUse" gradientTransform="rotate(-25.879 17.722 -26) scale(3.35783)"><stop stop-color="#FFE548"/><stop offset=".431" stop-color="#FFE346"/><stop offset=".636" stop-color="#FFDC3E"/><stop offset=".793" stop-color="#FFD031"/><stop offset=".926" stop-color="#FFBF1F"/><stop offset="1" stop-color="#FFB211"/></radialGradient><radialGradient id="paint1_radial" cx="0" cy="0" r="1" gradientUnits="userSpaceOnUse" gradientTransform="rotate(-170.121 2.29 3.029) scale(3.35783)"><stop stop-color="#FFE548"/><stop offset=".431" stop-color="#FFE346"/><stop offset=".636" stop-color="#FFDC3E"/><stop offset=".793" stop-color="#FFD031"/><stop offset=".926" stop-color="#FFBF1F"/><stop offset="1" stop-color="#FFB211"/></radialGradient><radialGradient id="paint4_radial" cx="0" cy="0" r="1" gradientUnits="userSpaceOnUse" gradientTransform="rotate(-8 103.95 -59.543) scale(4.5618 2.01677)"><stop stop-color="#FFE548"/><stop offset=".441" stop-color="#FFE346"/><stop offset=".643" stop-color="#FFDC3E"/><stop offset=".797" stop-color="#FFD032"/><stop offset=".925" stop-color="#FFC020"/><stop offset="1" stop-color="#FFB211"/></radialGradient><radialGradient id="paint8_radial" cx="0" cy="0" r="1" gradientUnits="userSpaceOnUse" gradientTransform="rotate(-8 34.473 -33.898) scale(9.33761)"><stop stop-color="#FFE548"/><stop offset=".431" stop-color="#FFE346"/><stop offset=".636" stop-color="#FFDC3E"/><stop offset=".793" stop-color="#FFD031"/><stop offset=".926" stop-color="#FFBF1F"/><stop offset="1" stop-color="#FFB211"/></radialGradient><clipPath id="clip0"><path fill="#fff" transform="rotate(-8 15.922 1.113)" d="M0 0h16v16H0z"/></clipPath></defs></svg>