<svg width="32" height="32" viewBox="0 0 32 32" fill="none" xmlns="http://www.w3.org/2000/svg">
<g clip-path="url(#clip0_745_6732)">
<path d="M24.1339 20.2509C24.1339 20.2509 25.3841 25.8212 21.0863 28.6022C18.2191 30.4574 15.2144 29.3644 13.5318 28.431C12.8092 28.0302 12.6761 27.046 13.2603 26.4615L15.4708 24.2511L24.1339 20.2509Z" fill="#2F47FF"/>
<path d="M11.7016 7.81965C11.7016 7.81965 6.13106 6.5694 3.3503 10.8673C1.49483 13.7344 2.58809 16.7391 3.5212 18.4217C3.92208 19.1444 4.90645 19.2774 5.49068 18.6932L7.70137 16.4825L11.7016 7.81965Z" fill="#2F47FF"/>
<path d="M11.3688 24.2998L7.65667 20.5877C7.13714 20.0684 7.13714 19.2263 7.65667 18.707L9.27386 17.0896C9.79315 16.5703 10.6352 16.5703 11.1545 17.0896L14.8669 20.802C15.3862 21.3213 15.3862 22.1633 14.8669 22.6826L13.2494 24.2998C12.7302 24.8193 11.8881 24.8193 11.3688 24.2998Z" fill="#252E75"/>
<path d="M26.7109 19.0621C23.5768 22.1959 19.5707 23.9254 15.4738 24.2511L7.70548 16.4827C8.03116 12.3858 9.76065 8.37972 12.8944 5.24569C15.2201 2.92 18.0251 1.36776 20.9911 0.58895C21.1381 0.550132 21.2863 0.513511 21.4345 0.479087C24.6164 -0.270669 27.963 -0.140054 31.0871 0.869956C32.0971 3.99398 32.2277 7.34066 31.4767 10.5216C31.443 10.6702 31.4064 10.8184 31.3676 10.9654C30.5885 13.9315 29.0365 16.7364 26.7109 19.0621Z" fill="#E4E4EF"/>
<path d="M16.5632 8.91462C13.4294 12.0487 11.0957 15.4503 9.76805 18.5455L7.7053 16.4827C8.03099 12.3858 9.76023 8.37946 12.8943 5.24568C15.22 2.91999 18.0246 1.36775 20.991 0.588938C21.1379 0.55012 21.2861 0.513499 21.4341 0.479075C24.6157 -0.270192 27.9617 -0.140309 31.0852 0.869212C29.0591 0.957347 26.6367 1.7508 24.1013 3.14631C23.9831 3.21076 23.8647 3.27693 23.7466 3.34455C21.3616 4.70466 18.8889 6.58918 16.5632 8.91462Z" fill="#CACADB"/>
<path d="M31.4725 10.5215L21.4302 0.47898C24.6116 -0.270288 27.9576 -0.140161 31.0811 0.869361C31.0819 0.869849 31.0823 0.869361 31.0828 0.869849C32.0928 3.99387 32.2235 7.34055 31.4725 10.5215Z" fill="#252E75"/>
<path d="M31.0811 0.869361C29.0552 0.957252 26.6329 1.75095 24.0972 3.14622L21.4302 0.47898C24.6116 -0.270288 27.9576 -0.140161 31.0811 0.869361Z" fill="#2F47FF"/>
<path d="M26.0593 12.3873C26.0593 15.9735 23.1521 18.8807 19.5659 18.8807C15.9798 18.8807 13.0725 15.9735 13.0725 12.3873C13.0725 8.80115 15.9798 5.89392 19.5659 5.89392C23.1521 5.89392 26.0593 8.80115 26.0593 12.3873Z" fill="#252E75"/>
<path d="M23.5397 12.3871C23.5397 14.5802 21.7618 16.358 19.5687 16.358C17.3756 16.358 15.5978 14.5802 15.5978 12.3871C15.5978 10.194 17.3756 8.41614 19.5687 8.41614C21.7618 8.41614 23.5397 10.194 23.5397 12.3871Z" fill="#589CE0"/>
<path d="M0.000154495 32.0002L7.23355 30.0619C9.3317 29.4997 10.0346 26.8769 8.49844 25.3407L6.65958 23.5016C5.12345 21.9657 2.50064 22.6684 1.93839 24.7668L0.000154495 32.0002Z" fill="#E8A328"/>
<path d="M-0.000207901 31.9999L5.93143 28.7601C7.65214 27.8202 8.82694 25.6693 8.04618 24.8883L7.11136 23.9535C6.33036 23.1725 4.17948 24.3475 3.23954 26.0682L-0.000207901 31.9999Z" fill="#FFBF3E"/>
</g>
<defs>
<clipPath id="clip0_745_6732">
<rect width="32" height="32" fill="white"/>
</clipPath>
</defs>
</svg>
