<svg width="33" height="33" viewBox="0 0 33 33" fill="none" xmlns="http://www.w3.org/2000/svg">
<path d="M15.4843 16.6565L14.7192 19.8741C15.8243 20.1095 18.7144 21.0513 19.2245 19.3248C19.5645 17.4413 16.3343 16.8919 15.4843 16.6565Z" fill="#F7931A"/>
<path d="M16.5135 12.2607L15.8335 15.1644C16.5985 15.3999 19.1487 16.2631 19.6587 14.4581C19.9987 12.8886 17.2786 12.4962 16.5135 12.2607Z" fill="#F7931A"/>
<path d="M19.8288 3.55116C12.6885 1.82463 5.4631 6.06246 3.76302 13.2825C1.89292 20.3455 6.31315 27.7225 13.4535 29.449C20.5939 31.1755 27.8192 26.9377 29.6893 19.7177C31.2194 12.6546 26.9692 5.27768 19.8288 3.55116ZM22.464 14.6166C22.209 15.9507 21.5289 16.5001 20.5939 16.7355C21.9539 17.4418 22.549 18.462 21.9539 20.3455C21.1889 22.6214 19.3188 22.7783 16.7687 22.3075L16.2587 24.7403L14.8136 24.3479L15.3236 21.9151C14.8986 21.7581 14.5586 21.6797 14.1335 21.6797L13.6235 24.1125L12.1784 23.7201L12.8585 21.2873C12.4335 21.1303 12.1784 21.1303 11.7534 21.0518L9.88333 20.6594L10.5634 18.9329L11.6684 19.1683C12.0934 19.3253 12.1784 19.0114 12.3485 18.9329L13.2835 15.0875L13.9635 12.2623C13.9635 12.0268 13.7935 11.5559 13.2835 11.4775L12.1784 11.242L12.6035 9.67247L14.5586 10.2218C14.8136 10.2218 15.1536 10.2218 15.4936 10.3788L16.0036 7.94594L17.4487 8.33834L16.9387 10.6142C17.3637 10.7712 17.7037 10.7712 18.1287 10.8496L18.6388 8.49529L20.0838 8.88768L19.5738 11.399C21.4439 11.7914 22.719 12.8901 22.464 14.6166Z" fill="#F7931A"/>
</svg>
