<svg width="20" height="16" viewBox="0 0 20 16" fill="none" xmlns="http://www.w3.org/2000/svg">
<path d="M19.5058 1.21415C19.3741 1.08137 19.2175 0.975978 19.0448 0.904056C18.8722 0.832134 18.687 0.795105 18.5 0.795105C18.313 0.795105 18.1278 0.832134 17.9552 0.904056C17.7825 0.975978 17.6259 1.08137 17.4942 1.21415L6.94 11.7825L2.50583 7.33415C2.36909 7.20206 2.20768 7.0982 2.0308 7.0285C1.85392 6.95879 1.66505 6.92461 1.47496 6.9279C1.28487 6.93118 1.09729 6.97188 0.922926 7.04766C0.748565 7.12345 0.590838 7.23283 0.45875 7.36957C0.326662 7.50631 0.222801 7.66772 0.153095 7.8446C0.0833893 8.02148 0.0492045 8.21036 0.0524932 8.40045C0.055782 8.59053 0.0964797 8.77811 0.172262 8.95248C0.248045 9.12684 0.357428 9.28456 0.494167 9.41665L5.93417 14.8567C6.06586 14.9894 6.22255 15.0948 6.39518 15.1667C6.56782 15.2387 6.75298 15.2757 6.94 15.2757C7.12702 15.2757 7.31218 15.2387 7.48482 15.1667C7.65745 15.0948 7.81414 14.9894 7.94583 14.8567L19.5058 3.29665C19.6496 3.16399 19.7644 3.00299 19.8429 2.82378C19.9214 2.64457 19.9619 2.45105 19.9619 2.2554C19.9619 2.05976 19.9214 1.86623 19.8429 1.68703C19.7644 1.50782 19.6496 1.34681 19.5058 1.21415V1.21415Z" fill="black"/>
</svg>
