<svg width="33" height="33" viewBox="0 0 33 33" fill="none" xmlns="http://www.w3.org/2000/svg">
<g clip-path="url(#clip0_4909_95205)">
<path d="M20.8497 4.5H11.1396L10.3348 9.48717L19.097 9.49889C23.4124 9.49889 24.6885 11.2359 24.6521 14.1197C24.6333 15.597 24.0557 18.0942 23.8062 18.9038C23.1412 21.0619 21.7754 23.5245 16.6535 23.5148L8.13605 23.5109L7.32956 28.5H17.018C20.4353 28.5 21.8898 28.0594 23.4277 27.2706C26.8397 25.5238 28.87 21.7901 29.6829 16.9175C30.8944 9.66159 29.3859 4.5 20.8497 4.5Z" fill="#0086D8"/>
<path d="M6.9498 13.9947C4.40648 13.9947 4.04197 15.8326 3.80132 16.9429C3.48612 18.3974 3.38281 18.9864 3.38281 18.9864H13.3248C15.8681 18.9864 16.2326 17.1485 16.4733 16.0382C16.7885 14.5837 16.8918 13.9947 16.8918 13.9947H6.9498Z" fill="#0086D8"/>
</g>
<defs>
<clipPath id="clip0_4909_95205">
<rect x="0.666504" y="0.5" width="32" height="32" rx="6" fill="white"/>
</clipPath>
</defs>
</svg>
