<svg width="33" height="33" viewBox="0 0 33 33" fill="none" xmlns="http://www.w3.org/2000/svg">
<path d="M16.6663 29.8334C24.0301 29.8334 29.9997 23.8639 29.9997 16.5001C29.9997 9.13628 24.0301 3.16675 16.6663 3.16675C9.30254 3.16675 3.33301 9.13628 3.33301 16.5001C3.33301 23.8639 9.30254 29.8334 16.6663 29.8334Z" fill="#627EEA"/>
<path d="M16.708 6.49829V13.8903L22.9555 16.6824L16.708 6.49829Z" fill="white" fill-opacity="0.602"/>
<path d="M16.7055 6.49829L10.458 16.6824L16.7055 13.8903V6.49829Z" fill="white"/>
<path d="M16.708 21.4727V26.4955L22.9591 17.8459L16.708 21.4727Z" fill="white" fill-opacity="0.602"/>
<path d="M16.7055 26.4955V21.4727L10.458 17.8459L16.7055 26.4955Z" fill="white"/>
<path d="M16.708 20.3104L22.9555 16.6837L16.708 13.8916V20.3104Z" fill="white" fill-opacity="0.2"/>
<path d="M10.458 16.6837L16.7055 20.3104V13.8916L10.458 16.6837Z" fill="white" fill-opacity="0.602"/>
</svg>
