<svg width="33" height="33" viewBox="0 0 33 33" fill="none" xmlns="http://www.w3.org/2000/svg">
<g clip-path="url(#clip0_4909_95202)">
<path d="M7.2431 4.61621C5.25877 4.61621 4.31621 5.37472 4.31621 7.14464V14.2243L5.75485 12.7578L7.2431 11.1902V8.91456C7.2431 7.90315 7.98722 7.65035 8.73135 7.65035H20.1412L21.1333 6.13333L22.1751 4.61621L15.3293 4.66679C11.559 4.66679 8.97939 4.61621 7.2431 4.61621ZM23.6138 7.2458C22.6714 8.71234 20.4886 11.8475 18.8019 14.2749L15.6766 18.725V28.3837H18.6035V23.2761L18.653 18.7755L22.3736 23.5795L26.0943 28.3837H29.0707C27.8306 26.6138 24.6061 22.3153 23.3659 20.5454L20.6373 16.7528L24.6061 10.6845C26.6896 7.59977 28.5747 4.76795 28.5747 4.61621H25.3501C23.6138 7.2458 25.1021 4.97018 23.6138 7.2458ZM7.2431 14.7301L4.2666 17.7643V28.3838H7.2431V17.7643H12.7V14.7301H7.2431Z" fill="url(#paint0_linear_4909_95202)"/>
</g>
<defs>
<linearGradient id="paint0_linear_4909_95202" x1="16.6687" y1="4.61621" x2="16.6687" y2="28.3838" gradientUnits="userSpaceOnUse">
<stop stop-color="#1D76FF"/>
<stop offset="1" stop-color="#901CFF"/>
</linearGradient>
<clipPath id="clip0_4909_95202">
<rect width="32" height="32" fill="white" transform="translate(0.666504 0.5)"/>
</clipPath>
</defs>
</svg>
