<svg width="33" height="37" viewBox="0 0 33 37" fill="none" xmlns="http://www.w3.org/2000/svg">
<path d="M27.25 9.54168H26.6229C27.0318 8.70455 27.2462 7.78583 27.25 6.85418C27.2554 5.60598 26.8871 4.38471 26.1926 3.34759C25.498 2.31047 24.5089 1.50495 23.3527 1.03474C22.1964 0.564525 20.9259 0.451129 19.7046 0.709147C18.4833 0.967165 17.3673 1.58479 16.5 2.48252C15.6327 1.58479 14.5167 0.967165 13.2954 0.709147C12.0741 0.451129 10.8036 0.564525 9.64733 1.03474C8.49107 1.50495 7.50199 2.31047 6.80742 3.34759C6.11285 4.38471 5.74458 5.60598 5.75 6.85418C5.75382 7.78583 5.96819 8.70455 6.37708 9.54168H5.75C4.32446 9.54168 2.95731 10.108 1.9493 11.116C0.941293 12.124 0.375 13.4911 0.375 14.9167V18.5C0.375 18.9752 0.563764 19.4309 0.899767 19.7669C1.23577 20.1029 1.69149 20.2917 2.16667 20.2917H3.95833V31.0417C3.95833 32.4672 4.52463 33.8344 5.53263 34.8424C6.54064 35.8504 7.90779 36.4167 9.33333 36.4167H23.6667C25.0922 36.4167 26.4594 35.8504 27.4674 34.8424C28.4754 33.8344 29.0417 32.4672 29.0417 31.0417V20.2917H30.8333C31.3085 20.2917 31.7642 20.1029 32.1002 19.7669C32.4362 19.4309 32.625 18.9752 32.625 18.5V14.9167C32.625 13.4911 32.0587 12.124 31.0507 11.116C30.0427 10.108 28.6755 9.54168 27.25 9.54168ZM14.7083 32.8334H9.33333C8.85815 32.8334 8.40244 32.6446 8.06643 32.3086C7.73043 31.9726 7.54167 31.5169 7.54167 31.0417V20.2917H14.7083V32.8334ZM14.7083 16.7083H3.95833V14.9167C3.95833 14.4415 4.1471 13.9858 4.4831 13.6498C4.8191 13.3138 5.27482 13.125 5.75 13.125H14.7083V16.7083ZM14.7083 9.54168H12.0208C11.4893 9.54168 10.9697 9.38406 10.5277 9.08876C10.0858 8.79345 9.74132 8.37372 9.53791 7.88264C9.3345 7.39157 9.28127 6.8512 9.38497 6.32988C9.48867 5.80855 9.74463 5.32969 10.1205 4.95383C10.4963 4.57798 10.9752 4.32202 11.4965 4.21832C12.0179 4.11462 12.5582 4.16785 13.0493 4.37126C13.5404 4.57467 13.9601 4.91913 14.2554 5.36109C14.5507 5.80304 14.7083 6.32265 14.7083 6.85418V9.54168ZM18.2917 6.85418C18.2917 6.32265 18.4493 5.80304 18.7446 5.36109C19.0399 4.91913 19.4596 4.57467 19.9507 4.37126C20.4418 4.16785 20.9821 4.11462 21.5035 4.21832C22.0248 4.32202 22.5037 4.57798 22.8795 4.95383C23.2554 5.32969 23.5113 5.80855 23.615 6.32988C23.7187 6.8512 23.6655 7.39157 23.4621 7.88264C23.2587 8.37372 22.9142 8.79345 22.4723 9.08876C22.0303 9.38406 21.5107 9.54168 20.9792 9.54168H18.2917V6.85418ZM25.4583 31.0417C25.4583 31.5169 25.2696 31.9726 24.9336 32.3086C24.5976 32.6446 24.1418 32.8334 23.6667 32.8334H18.2917V20.2917H25.4583V31.0417ZM29.0417 16.7083H18.2917V13.125H27.25C27.7252 13.125 28.1809 13.3138 28.5169 13.6498C28.8529 13.9858 29.0417 14.4415 29.0417 14.9167V16.7083Z" fill="white"/>
</svg>
