<svg width="33" height="33" viewBox="0 0 33 33" fill="none" xmlns="http://www.w3.org/2000/svg">
<path d="M16.6663 3.16675C9.30316 3.16675 3.33301 9.1369 3.33301 16.5001C3.33301 23.8633 9.30316 29.8334 16.6663 29.8334C24.0295 29.8334 29.9997 23.8633 29.9997 16.5001C29.9844 9.1369 24.0295 3.16675 16.6663 3.16675ZM16.8653 16.9287L15.4876 21.613H22.8967C23.157 21.613 23.3254 21.8579 23.2641 22.1028L22.6212 24.3225C22.5599 24.5368 22.3609 24.6899 22.1313 24.6899H10.8033L12.7169 18.2146L10.6043 18.8728L11.0636 17.342L13.1914 16.6838L15.8856 7.59078C15.9469 7.37647 16.1459 7.22339 16.3755 7.22339H19.2381C19.4983 7.22339 19.6667 7.46832 19.6055 7.71325L17.3246 15.3979L19.4371 14.7397L18.9779 16.2858L16.8653 16.9287Z" fill="#437BD1"/>
</svg>
