<svg width="46" height="33" viewBox="0 0 46 33" fill="none" xmlns="http://www.w3.org/2000/svg">
<path d="M22.829 17.7497V17.2885H23.0631V17.2117H22.6729V17.2885L22.829 17.7497ZM23.6875 17.7497V17.2117H23.6094L23.3753 17.5959L23.2972 17.2885H23.2192V17.8265H23.2972V17.4422L23.3753 17.7497H23.4533L23.5314 17.4422L23.6875 17.7497Z" fill="#576774"/>
<path d="M18.2974 16.5171C18.2974 20.5136 20.0925 24.3564 23.1364 26.7389C28.7559 22.2813 29.6145 14.0578 25.3218 8.44731C24.6193 7.67876 23.9169 6.9102 23.1364 6.21851C20.0144 8.67788 18.2974 12.5207 18.2974 16.5171Z" fill="#FF5A00"/>
<path d="M16.8968 16.5153C16.8968 12.2882 18.848 8.36862 21.97 5.52496C16.5065 1.98961 9.09186 3.2193 5.11136 8.44547C0.662559 14.0559 1.6772 22.2795 7.29673 26.7371C11.5114 30.2724 17.3651 30.4261 21.8919 27.5056C18.7699 24.662 16.8968 20.5886 16.8968 16.5153Z" fill="#EB001B"/>
<path d="M40.9353 8.44772C36.9548 3.1447 29.5401 1.91501 24.0767 5.45036C24.7791 5.98835 25.2474 6.52634 25.7157 7.06433C30.945 13.2896 30.2425 22.128 24.0767 27.431C26.1059 28.7376 28.5255 29.5061 30.945 29.5061C37.9694 29.5061 43.667 23.5882 43.667 16.4407C43.667 13.597 42.8084 10.6765 40.9353 8.44772Z" fill="#F79E1B"/>
</svg>
