<svg xmlns="http://www.w3.org/2000/svg" viewBox="0 0 200 200" fill="none" shape-rendering="auto" width="512" height="512"><desc>"Fun Emoji Set" by "Davis Uche", licensed under "CC BY 4.0". / Remix of the original. - Created with dicebear.com</desc><metadata xmlns:dc="http://purl.org/dc/elements/1.1/" xmlns:cc="http://creativecommons.org/ns#" xmlns:rdf="http://www.w3.org/1999/02/22-rdf-syntax-ns#"><rdf:RDF><cc:Work><dc:title>Fun Emoji Set</dc:title><dc:creator><cc:Agent rdf:about="https://www.instagram.com/davedirect3/"><dc:title>Davis Uche</dc:title></cc:Agent></dc:creator><dc:source>https://www.figma.com/community/file/968125295144990435</dc:source><cc:license rdf:resource="https://creativecommons.org/licenses/by/4.0/" /></cc:Work></rdf:RDF></metadata><mask id="viewboxMask"><rect width="200" height="200" rx="0" ry="0" x="0" y="0" fill="#fff" /></mask><g mask="url(#viewboxMask)"><rect fill="#d84be5" width="200" height="200" x="0" y="0" /><g transform="matrix(1.5625 0 0 1.5625 37.5 110.94)"><path d="M40.54 30h-.75c-9.7-.22-20.8-5.3-23.7-16.15a1.36 1.36 0 0 1 .44-1.55 1.41 1.41 0 0 1 2.26.86c2.55 9.46 12.42 13.89 21.06 14.08 8.24.16 19.04-3.84 22.46-14.57a1.47 1.47 0 0 1 1.65-.55A1.44 1.44 0 0 1 65 13.5C61.85 23.31 52.3 30 40.54 30Z" fill="#000"/></g><g transform="matrix(1.5625 0 0 1.5625 31.25 59.38)"><path d="M78.36 25.92h-6.6c-9.72 0-9.72.07-9.72-9.73v-3.3A13.04 13.04 0 0 1 75.06-.13 13.04 13.04 0 0 1 88.1 12.9v3.38c-.03 9.72-.03 9.65-9.73 9.65Z" fill="#000"/><path d="M70.69 9.52a2.28 2.28 0 1 0 0-4.57 2.28 2.28 0 0 0 0 4.57Z" fill="#fff"/><path opacity=".1" d="M74.92 18.31a5.31 5.31 0 1 0 0-10.62 5.31 5.31 0 0 0 0 10.62Z" fill="#fff"/><path d="M17.36 25.92h-6.6c-9.72 0-9.72.07-9.72-9.73v-3.3A13.04 13.04 0 0 1 14.06-.13 13.04 13.04 0 0 1 27.1 12.9v3.38c-.03 9.72-.03 9.65-9.73 9.65Z" fill="#000"/><path d="M9.8 9.53a2.29 2.29 0 1 0 0-4.57 2.29 2.29 0 0 0 0 4.57Z" fill="#fff"/><path opacity=".1" d="M14.03 18.35a5.32 5.32 0 1 0 0-10.65 5.32 5.32 0 0 0 0 10.65Z" fill="#fff"/></g></g></svg>