<svg width="33" height="33" viewBox="0 0 33 33" fill="none" xmlns="http://www.w3.org/2000/svg">
<ellipse cx="21.5394" cy="16.4964" rx="2.70392" ry="2.6849" fill="#FFD833"/>
<mask id="mask0_4909_95190" style="mask-type:alpha" maskUnits="userSpaceOnUse" x="8" y="3" width="18" height="27">
<path d="M19.3644 13.9776C18.4649 12.5515 17.941 11.072 17.7927 9.53921C16.4845 8.47185 14.3985 7.9478 11.5348 7.96707C11.4642 9.13267 11.6385 10.3002 12.0462 11.3937H12.0174C12.3143 12.0977 12.7283 12.7459 13.2415 13.3105C13.2423 13.3214 13.2453 13.3321 13.2502 13.3418C13.2552 13.3515 13.262 13.3602 13.2703 13.3673C13.4515 13.5671 13.6517 13.7489 13.868 13.9098C15.1276 14.8793 16.6199 15.4797 18.345 15.711C18.5042 15.0437 18.8593 14.4397 19.3644 13.9776Z" fill="url(#paint0_linear_4909_95190)"/>
<path d="M13.8673 20.7142H13.8384C13.0231 21.9527 12.5014 23.7246 12.2734 26.0298C13.5278 26.2203 14.6848 26.1632 15.7444 25.8586C16.6573 25.584 17.5012 25.1161 18.2192 24.4866V24.4577L18.3897 24.2865H18.4207C19.5547 23.0813 20.311 21.5817 20.6896 19.788C20.1711 19.6328 19.6969 19.3557 19.3061 18.9797C17.567 20.119 15.754 20.6971 13.8673 20.7142Z" fill="url(#paint1_linear_4909_95190)"/>
<path d="M13.2939 14.627C13.105 14.4752 12.9247 14.313 12.7538 14.1411C11.4256 14.5028 9.95575 15.3315 8.34424 16.6272C9.0021 17.5972 9.86728 18.4074 10.8766 18.9987C11.7114 19.4777 12.6469 19.752 13.6071 19.7992H13.8628C15.5599 19.7829 17.1832 19.2711 18.7328 18.2638C18.436 17.7687 18.2699 17.2058 18.2501 16.6283C16.3531 16.374 14.701 15.7069 13.2939 14.627Z" fill="url(#paint2_linear_4909_95190)"/>
<path d="M23.461 13.6073C24.3575 12.2198 24.8645 10.7878 24.9818 9.3112V9.25454C25.0013 9.07429 25.011 8.89321 25.0105 8.71197C24.9988 7.6565 24.7146 6.62218 24.186 5.71C23.657 4.75975 22.8718 3.91216 21.8307 3.16724H21.8241C20.7807 3.90846 19.9937 4.75641 19.4632 5.71111C18.9346 6.62329 18.6505 7.65761 18.6387 8.71307C18.6383 8.89431 18.6479 9.07544 18.6674 9.25564V9.3123C18.7803 10.7362 19.257 12.119 20.0974 13.4606C20.6222 13.1877 21.2091 13.0578 21.7994 13.0838C22.3898 13.1097 22.9631 13.2906 23.4621 13.6084L23.461 13.6073Z" fill="url(#paint3_linear_4909_95190)"/>
<path d="M24.6736 23.7125V23.6837C24.4965 22.2798 24.0054 20.903 23.2004 19.5532C22.721 19.8006 22.1897 19.9295 21.6509 19.929C21.6287 19.929 21.6066 19.929 21.5844 19.929C21.1698 21.8999 20.3316 23.5517 19.0698 24.8845C19.0659 24.8839 19.0619 24.8842 19.0582 24.8855C19.0544 24.8867 19.051 24.8889 19.0482 24.8917C19.0454 24.8945 19.0433 24.8979 19.0421 24.9016C19.0408 24.9054 19.0405 24.9094 19.041 24.9134C19.0416 24.9173 19.0412 24.9213 19.0399 24.925C19.0387 24.9288 19.0366 24.9323 19.0338 24.935C19.031 24.9379 19.0276 24.9399 19.0239 24.9412C19.0202 24.9425 19.0162 24.9428 19.0122 24.9422C19.2971 26.4091 20.1788 28.0398 21.6575 29.8343C22.6076 29.1526 23.4029 28.276 23.9907 27.2626C24.4075 26.5238 24.6689 25.7067 24.7587 24.8622C24.7233 24.8121 24.7036 24.7525 24.7023 24.6909C24.7408 24.3652 24.7311 24.0355 24.6736 23.7125Z" fill="url(#paint4_linear_4909_95190)"/>
</mask>
<g mask="url(#mask0_4909_95190)">
<path d="M25.3251 3.16699H8.34424V29.8298H25.3251V3.16699Z" fill="#FF467D"/>
</g>
<defs>
<linearGradient id="paint0_linear_4909_95190" x1="11.635" y1="8.06337" x2="18.1645" y2="14.6365" gradientUnits="userSpaceOnUse">
<stop stop-color="#FF4081"/>
<stop offset="1" stop-color="#FFA73F"/>
</linearGradient>
<linearGradient id="paint1_linear_4909_95190" x1="20.9476" y1="18.9483" x2="12.2296" y2="26.0789" gradientUnits="userSpaceOnUse">
<stop stop-color="#FFA73F"/>
<stop offset="1" stop-color="#FF4081"/>
</linearGradient>
<linearGradient id="paint2_linear_4909_95190" x1="18.7519" y1="18.1312" x2="8.34661" y2="16.753" gradientUnits="userSpaceOnUse">
<stop stop-color="#FFA73F"/>
<stop offset="1" stop-color="#FF4081"/>
</linearGradient>
<linearGradient id="paint3_linear_4909_95190" x1="21.8246" y1="3.16724" x2="21.8246" y2="13.6084" gradientUnits="userSpaceOnUse">
<stop stop-color="#FF4081"/>
<stop offset="1" stop-color="#FFA73F"/>
</linearGradient>
<linearGradient id="paint4_linear_4909_95190" x1="21.8855" y1="19.5532" x2="21.8855" y2="29.8343" gradientUnits="userSpaceOnUse">
<stop stop-color="#FFA73F"/>
<stop offset="1" stop-color="#FF4081"/>
</linearGradient>
</defs>
</svg>
