<svg width="14" height="14" viewBox="0 0 14 14" fill="none" xmlns="http://www.w3.org/2000/svg">
<path d="M9.87621e-06 6.96135C-0.00198821 6.56263 0.299423 6.22773 0.696142 6.18787H13.2265C13.6537 6.18787 14 6.53417 14 6.96135C14 7.38853 13.6537 7.73483 13.2265 7.73483H0.696142C0.299423 7.69496 -0.00198821 7.36006 9.87621e-06 6.96135Z" fill="white"/>
<path d="M6.96098 9.87621e-06C7.35969 -0.00198821 7.69459 0.299423 7.73446 0.696142V13.2265C7.73446 13.6537 7.38816 14 6.96098 14C6.5338 14 6.1875 13.6537 6.1875 13.2265V0.696142C6.22737 0.299423 6.56227 -0.00198821 6.96098 9.87621e-06Z" fill="white"/>
</svg>
