<svg width="33" height="33" viewBox="0 0 33 33" fill="none" xmlns="http://www.w3.org/2000/svg">
<path d="M28.5532 28.899C28.4397 28.5736 28.2338 28.3518 28.0847 28.0634C27.7226 27.568 27.2967 27.1391 26.8707 26.7102C26.7216 26.6585 26.6577 26.5106 26.5157 26.4514C26.4234 26.3257 26.2743 26.2592 26.1537 26.163C25.9123 25.9708 25.6496 25.8081 25.3798 25.6454C24.8687 25.3053 24.2368 25.0908 23.6121 24.869C22.9376 24.6989 22.2277 24.5732 21.4894 24.4697C20.7581 24.3588 20.0269 24.2552 19.4732 23.9521C19.1537 23.8559 18.9194 23.6711 18.6425 23.5232C18.3869 23.3457 18.1101 23.1978 17.8971 22.976C17.6344 22.8133 17.4711 22.5397 17.2652 22.3179C17.1943 22.17 17.0736 22.0812 17.0168 21.9186C16.9458 21.889 16.9245 21.8003 16.8819 21.7485C16.8322 21.6893 16.8322 21.571 16.747 21.5488C16.7044 21.852 16.7186 22.2143 16.747 22.5249C16.7825 22.658 16.7967 22.8207 16.8322 22.9538C16.8535 23.0721 16.96 23.2644 16.9174 23.3531C14.7024 23.2348 13.0837 22.5027 11.678 21.5414C10.9823 21.0608 10.386 20.4766 9.83221 19.8481C9.59083 19.5005 9.32816 19.1678 9.11517 18.7833C8.89509 18.4062 8.71051 17.9773 8.51173 17.578C8.18516 16.7128 7.87988 15.8255 7.76629 14.7385C7.61721 13.7254 7.6527 12.4314 7.87278 11.4923C7.95088 10.9746 8.11416 10.5384 8.25615 10.0873C8.34844 9.88025 8.44783 9.67321 8.53303 9.45877C8.65372 9.2813 8.71761 9.03728 8.8667 8.88199C9.27136 8.09078 9.87481 7.49921 10.4925 6.92983C11.1598 6.41961 11.9194 6.00552 12.8352 5.7541C13.7156 5.54705 14.9154 5.51008 15.8667 5.72452C17.7977 6.13862 19.2531 7.04075 20.4742 8.1943C21.7095 9.32566 22.6608 10.7602 23.3139 12.5053C23.9883 14.1617 24.2226 16.7424 23.6192 18.6206C23.3707 18.4727 23.1222 18.3322 22.8737 18.1917C22.5756 18.103 22.2845 17.9995 21.9366 17.9625C21.5178 17.9551 21.106 17.9625 20.8362 18.103C21.3829 18.0438 21.823 18.1991 22.1638 18.3322C22.3626 18.4136 22.4762 18.4653 22.6324 18.5614C22.9376 18.7463 23.2074 18.9164 23.4346 19.1678C24.0806 19.7594 24.5421 20.5432 24.7622 21.5784C24.7622 21.608 24.7977 21.6006 24.7906 21.5488C24.819 21.5414 24.8332 21.5193 24.8474 21.4897C24.8829 21.4453 24.9255 21.4009 24.961 21.3492C25.032 21.2604 25.1029 21.1717 25.1526 21.0608C25.3017 20.8759 25.4224 20.6689 25.536 20.4544C25.7987 20.0551 25.9975 19.5967 26.2247 19.1604C26.6151 18.2287 26.9346 17.223 27.1334 16.0843C27.5309 13.5553 27.0553 11.1595 26.2247 9.39221C25.3727 7.61013 24.18 6.18298 22.6395 5.11078C21.0847 4.04596 19.2673 3.26214 16.7683 3.1882C16.7541 3.13643 16.7328 3.19559 16.6831 3.1882C15.3626 3.14383 14.2977 3.33609 13.2399 3.61708C12.7501 3.78715 12.2389 3.93504 11.8058 4.16427C11.3089 4.33435 10.9113 4.61534 10.457 4.82239C10.2937 4.98507 10.0452 5.06641 9.87481 5.22169C9.65473 5.33261 9.49144 5.51008 9.27136 5.621C8.91639 5.94636 8.54013 6.23475 8.19226 6.5675C7.85149 6.89286 7.55331 7.26259 7.22674 7.60274C7.17705 7.72105 7.09185 7.80239 7.00666 7.89112C6.94987 8.00204 6.87887 8.09817 6.78658 8.17951C6.75108 8.31261 6.6375 8.36437 6.5949 8.49748C6.50261 8.57142 6.48131 8.71931 6.37482 8.78586C6.28253 9.02249 6.11924 9.19256 6.01275 9.4144C5.88496 9.62884 5.78557 9.86547 5.65778 10.0725C5.459 10.5532 5.24602 11.019 5.08273 11.5366C4.91235 12.0395 4.77036 12.5719 4.67097 13.1486C4.56448 13.6884 4.46509 14.3909 4.47929 14.9603C4.40829 15.1673 4.46509 15.5519 4.47929 15.7959C4.47929 15.8403 4.45089 15.855 4.45089 15.8846C4.45089 16.1582 4.52188 16.491 4.53608 16.661C4.59288 17.2896 4.69937 17.8737 4.86975 18.384C4.97624 18.9534 5.20342 19.397 5.36671 19.9072C5.61519 20.3361 5.78557 20.8464 6.08374 21.2309C6.30382 21.6819 6.6162 22.0369 6.91437 22.4066C7.23384 22.7615 7.55331 23.1239 7.93668 23.4123C8.63952 24.0482 9.46304 24.5584 10.3647 24.9947C12.0472 25.8451 14.5604 26.3997 16.818 26.2592C17.393 26.1778 17.9752 26.1039 18.5005 25.9708C18.9833 25.7859 19.5441 25.675 20.1263 25.601C21.4539 25.5123 22.604 25.638 23.6263 25.9486C24.6628 26.237 25.5573 26.6733 26.3311 27.2426C26.7429 27.494 27.0837 27.8194 27.4315 28.13C27.7865 28.4479 28.0705 28.8399 28.3971 29.1948C28.4397 29.3279 28.5248 29.424 28.5887 29.5423C28.6739 29.6385 28.6313 29.8603 28.8372 29.8307C28.965 29.6976 28.8159 29.5054 28.8088 29.3427C28.681 29.2022 28.6526 29.0173 28.5532 28.899Z" fill="#F7901F"/>
<path d="M23.3954 21.0328C23.3671 21.0328 23.36 21.0549 23.3387 21.0623C23.289 21.1733 23.3103 21.3507 23.3387 21.4616C23.4877 21.7796 23.5374 22.1937 23.864 22.3268C24.0202 22.275 24.006 22.0384 23.9989 21.8092C23.9279 21.5282 23.8285 21.2768 23.6652 21.0919C23.5516 21.0475 23.4735 20.9736 23.3954 21.0328ZM21.4644 21.8388C21.4644 21.824 21.4431 21.8092 21.436 21.8388C21.1662 21.8018 21.074 21.9571 20.9391 22.068C20.7048 22.7113 21.0811 23.3399 21.7413 23.3325C22.004 23.2659 22.1673 23.0884 22.2099 22.7853C22.1744 22.2455 21.9543 21.8979 21.4644 21.8388Z" fill="#F7901F"/>
</svg>
