<svg width="33" height="33" viewBox="0 0 33 33" fill="none" xmlns="http://www.w3.org/2000/svg">
<g clip-path="url(#clip0_4909_95176)">
<path d="M6.6665 9.73535L9.60608 15.143V18.4415L6.66994 23.8386L6.6665 9.73535Z" fill="#5B57A2"/>
<path d="M17.9521 13.1756L20.7066 11.438L26.3439 11.4326L17.9521 16.7235V13.1756Z" fill="#D90751"/>
<path d="M17.9353 9.70263L17.9509 16.8622L15.0044 14.9989V4.29663L17.9353 9.70263Z" fill="#FAB718"/>
<path d="M26.3426 11.4314L20.7051 11.4368L17.9353 9.70263L15.0044 4.29663L26.3426 11.4314Z" fill="#ED6F26"/>
<path d="M17.9509 23.8684V20.3948L15.0044 18.5669L15.006 29.2798L17.9509 23.8684Z" fill="#63B22F"/>
<path d="M20.7009 22.1468L9.60588 15.143L6.6665 9.73535L26.3331 22.1398L20.7009 22.1468Z" fill="#1487C9"/>
<path d="M15.0044 29.2786L17.9488 23.8672L20.6964 22.1455L26.3286 22.1384L15.0044 29.2786Z" fill="#017F36"/>
<path d="M6.6665 23.839L15.0275 18.5677L12.2165 16.7927L9.60264 18.442L6.6665 23.839Z" fill="#984995"/>
</g>
<defs>
<clipPath id="clip0_4909_95176">
<rect width="20" height="25.3333" fill="white" transform="translate(6.6665 3.83325)"/>
</clipPath>
</defs>
</svg>
