<svg width="33" height="33" viewBox="0 0 33 33" fill="none" xmlns="http://www.w3.org/2000/svg">
<g clip-path="url(#clip0_4909_95239)">
<path fill-rule="evenodd" clip-rule="evenodd" d="M16.6663 3.16675C24.0307 3.16675 29.9997 9.13577 29.9997 16.5001C29.9997 23.8644 24.0307 29.8334 16.6663 29.8334C9.30202 29.8334 3.33301 23.8644 3.33301 16.5001C3.33301 9.13577 9.30202 3.16675 16.6663 3.16675Z" fill="#F0B90B"/>
<path d="M10.6607 16.5001L10.6703 20.0258L13.666 21.7886V23.8527L8.91708 21.0675V15.4692L10.6607 16.5001ZM10.6607 12.9745V15.029L8.91602 13.9969V11.9425L10.6607 10.9104L12.4139 11.9425L10.6607 12.9745ZM14.9171 11.9425L16.6617 10.9104L18.4149 11.9425L16.6617 12.9745L14.9171 11.9425Z" fill="white"/>
<path d="M11.9214 19.295V17.2309L13.666 18.263V20.3175L11.9214 19.295ZM14.9171 22.5279L16.6618 23.56L18.415 22.5279V24.5824L16.6618 25.6145L14.9171 24.5824V22.5279ZM20.9171 11.9425L22.6618 10.9104L24.415 11.9425V13.9969L22.6618 15.029V12.9745L20.9171 11.9425ZM22.6618 20.0258L22.6714 16.5001L24.416 15.4681V21.0664L19.6671 23.8516V21.7875L22.6618 20.0258Z" fill="white"/>
<path d="M21.4107 19.2948L19.666 20.3173V18.2628L21.4107 17.2307V19.2948Z" fill="white"/>
<path d="M21.4107 13.7052L21.4203 15.7693L18.416 17.5321V21.0663L16.6714 22.0887L14.9267 21.0663V17.5321L11.9225 15.7693V13.7052L13.6746 12.6731L16.6607 14.4445L19.665 12.6731L21.4182 13.7052H21.4107ZM11.9214 10.1806L16.6618 7.38574L21.4107 10.1806L19.666 11.2127L16.6618 9.4413L13.666 11.2127L11.9214 10.1806Z" fill="white"/>
</g>
<defs>
<clipPath id="clip0_4909_95239">
<rect width="26.6667" height="26.6667" fill="white" transform="translate(3.33301 3.16675)"/>
</clipPath>
</defs>
</svg>
