<svg width="33" height="33" viewBox="0 0 33 33" fill="none" xmlns="http://www.w3.org/2000/svg">
<g clip-path="url(#clip0_4909_95249)">
<path d="M16.6668 29.8337C24.0306 29.8337 30.0002 23.8641 30.0002 16.5003C30.0002 9.13653 24.0306 3.16699 16.6668 3.16699C9.30303 3.16699 3.3335 9.13653 3.3335 16.5003C3.3335 23.8641 9.30303 29.8337 16.6668 29.8337Z" fill="#0088CC"/>
<path fill-rule="evenodd" clip-rule="evenodd" d="M12.9527 11.9761H20.4289C20.7147 11.9761 20.9527 12.0237 21.2385 12.1666C21.5718 12.3094 21.7623 12.5475 21.8575 12.738C21.8575 12.738 21.8575 12.7856 21.9051 12.7856C22.048 13.0237 22.1432 13.3094 22.1432 13.6427C22.1432 13.9285 22.0956 14.2142 21.9051 14.4999L17.1908 22.5951C17.0956 22.7856 16.9051 22.8808 16.667 22.8808C16.4766 22.8808 16.2861 22.7856 16.1432 22.5951L11.5242 14.4999C11.4289 14.3094 11.2385 14.0713 11.2385 13.6904C11.1908 13.357 11.2861 13.0713 11.4289 12.7856C11.5718 12.4999 11.8099 12.2618 12.1432 12.1666C12.4289 11.9761 12.7623 11.9761 12.9527 11.9761ZM16.0956 13.1189H12.9527C12.7623 13.1189 12.667 13.1189 12.6194 13.1666C12.5242 13.2142 12.4766 13.2618 12.4289 13.357C12.3813 13.4046 12.3813 13.4999 12.3813 13.5951C12.3813 13.6427 12.4289 13.6904 12.5242 13.8808L16.0956 20.0713V13.1189ZM17.2385 13.1189V20.1189L20.8575 13.8808C20.9051 13.7856 20.9051 13.6904 20.9051 13.5951C20.9051 13.4999 20.9051 13.4046 20.8575 13.357C20.8099 13.3094 20.8099 13.2618 20.7623 13.2618L20.7147 13.2142C20.6194 13.1666 20.5242 13.1666 20.3813 13.1666H17.2385V13.1189Z" fill="white"/>
</g>
<defs>
<clipPath id="clip0_4909_95249">
<rect width="26.6667" height="26.6667" fill="white" transform="translate(3.3335 3.16675)"/>
</clipPath>
</defs>
</svg>
