<svg width="33" height="33" viewBox="0 0 33 33" fill="none" xmlns="http://www.w3.org/2000/svg">
<g clip-path="url(#clip0_4909_95217)">
<path d="M23.5245 12.7198C23.0371 12.4507 22.4105 12.4507 21.8535 12.7198L17.9544 14.9394L15.3086 16.3518L11.4792 18.5714C10.9918 18.8405 10.3652 18.8405 9.8082 18.5714L6.8143 16.8227C6.32692 16.5536 5.97879 16.0155 5.97879 15.4102V12.0472C5.97879 11.5091 6.25729 10.971 6.8143 10.6347L9.8082 8.95322C10.2956 8.68418 10.9222 8.68418 11.4792 8.95322L14.4731 10.702C14.9605 10.971 15.3086 11.5091 15.3086 12.1144V14.334L17.9544 12.8543V10.5675C17.9544 10.0294 17.6759 9.4913 17.1189 9.155L11.5488 5.99377C11.0615 5.72473 10.4348 5.72473 9.87783 5.99377L4.16852 9.22226C3.61151 9.4913 3.33301 10.0294 3.33301 10.5675V16.8899C3.33301 17.428 3.61151 17.9661 4.16852 18.3024L9.8082 21.4636C10.2956 21.7326 10.9222 21.7326 11.4792 21.4636L15.3086 19.3113L17.9544 17.8316L21.7838 15.6792C22.2712 15.4102 22.8978 15.4102 23.4549 15.6792L26.4488 17.3607C26.9361 17.6298 27.2843 18.1679 27.2843 18.7732V22.1362C27.2843 22.6743 27.0058 23.2124 26.4488 23.5487L23.5245 25.2302C23.0371 25.4992 22.4105 25.4992 21.8535 25.2302L18.8596 23.5487C18.3722 23.2796 18.024 22.7415 18.024 22.1362V19.9839L15.3783 21.4636V23.6832C15.3783 24.2213 15.6568 24.7593 16.2138 25.0957L21.8535 28.2569C22.3408 28.5259 22.9675 28.5259 23.5245 28.2569L29.1642 25.0957C29.6515 24.8266 29.9997 24.2885 29.9997 23.6832V17.2935C29.9997 16.7554 29.7212 16.2173 29.1642 15.881L23.5245 12.7198Z" fill="#8247E5"/>
</g>
<defs>
<clipPath id="clip0_4909_95217">
<rect width="32" height="32" fill="white" transform="translate(0.666504 0.5)"/>
</clipPath>
</defs>
</svg>
