<svg width="33" height="33" viewBox="0 0 33 33" fill="none" xmlns="http://www.w3.org/2000/svg">
<path d="M18.0876 17.7283V17.7326C21.3352 17.5869 23.7596 17.0209 23.7596 16.3436C23.7596 15.6662 21.3373 15.1003 18.0876 14.9545V17.1667C17.9933 17.1753 17.4874 17.2182 16.4756 17.2182C15.6331 17.2182 15.0222 17.1817 14.81 17.1667V14.9524C11.556 15.096 9.12509 15.664 9.12509 16.3414C9.12509 17.0209 11.5538 17.5869 14.81 17.7305V17.7283C15.0201 17.7391 15.6138 17.7626 16.4606 17.7626C17.5195 17.7626 17.9954 17.7348 18.0876 17.7283Z" fill="#26A17B"/>
<path fill-rule="evenodd" clip-rule="evenodd" d="M29.9997 16.5001C29.9997 23.8639 24.0301 29.8334 16.6663 29.8334C9.30254 29.8334 3.33301 23.8639 3.33301 16.5001C3.33301 9.13628 9.30254 3.16675 16.6663 3.16675C24.0301 3.16675 29.9997 9.13628 29.9997 16.5001ZM18.0876 12.7444V14.7251L18.0897 14.7273C21.7682 14.8966 24.5334 15.6276 24.5334 16.5C24.5334 17.3746 21.7682 18.1035 18.0897 18.2728V24.6222H14.8121V18.2728C11.1294 18.1013 8.35767 17.3725 8.35767 16.4979C8.35767 15.6233 11.1272 14.8945 14.8121 14.7251V12.7444H10.2784V9.72406H22.6213V12.7444H18.0876Z" fill="#26A17B"/>
</svg>
