<svg width="81" height="33" viewBox="0 0 81 33" fill="none" xmlns="http://www.w3.org/2000/svg">
<g clip-path="url(#clip0_4909_95163)">
<path d="M74.5538 4.28003H69.4662C68.1579 4.28003 67.2858 4.90989 66.8497 6.01215L57.8374 29.7895H64.2332L65.5415 26.0103H73.3909L73.9723 29.7895H79.7867L74.5538 4.28003ZM67.2858 20.814L70.6291 11.2085L72.6641 20.814H67.2858Z" fill="#005A9C"/>
<path d="M40.2779 4.28003H34.1906L28.8643 29.7895H34.9515L40.2779 4.28003Z" fill="#005A9C"/>
<path d="M57.6389 21.5331C57.6389 15.082 48.6657 14.6319 48.6657 11.7814C48.6657 11.0312 49.5782 10.1311 51.4033 9.681C52.3158 9.53097 55.0534 9.53098 57.6389 10.8812L58.7036 5.63027C57.0306 5.03017 55.0534 4.28003 52.4679 4.28003C46.2322 4.28003 41.8216 7.73065 41.6695 12.5315C41.6695 15.9821 44.7113 18.0825 47.1448 19.2827C49.5782 20.4829 50.6428 21.2331 50.6428 22.2833C50.6428 23.9336 48.6657 24.5337 46.8406 24.5337C43.7988 24.5337 41.6695 23.6335 40.3007 23.0334L39.3882 28.4344C40.9091 29.0345 43.6467 29.7846 46.3843 29.7846C53.2283 29.9346 57.6389 26.6341 57.6389 21.5331Z" fill="#005A9C"/>
<path d="M17.5202 21.7012L14.7788 7.07985C14.6265 5.5244 13.2558 4.74667 11.8851 4.74667H0.91939L0.76709 5.2133C3.05161 5.67994 5.48843 6.61322 7.01144 7.39095C7.92525 7.85758 8.22985 8.16867 8.53445 9.56858L13.7127 29.7895H20.414L30.6181 4.28003H23.9169L17.5202 21.7012Z" fill="#005A9C"/>
</g>
<defs>
<clipPath id="clip0_4909_95163">
<rect width="80" height="32" fill="white" transform="translate(0.333496 0.5)"/>
</clipPath>
</defs>
</svg>
